<?xml version="1.0" standalone="no"?><!DOCTYPE svg PUBLIC "-//W3C//DTD SVG 1.1//EN" "http://www.w3.org/Graphics/SVG/1.1/DTD/svg11.dtd"><svg t="1533171181331" class="icon" style="" viewBox="0 0 1024 1024" version="1.1" xmlns="http://www.w3.org/2000/svg" p-id="5226" xmlns:xlink="http://www.w3.org/1999/xlink" width="200" height="200"><defs><style type="text/css"></style></defs><path d="M511.576197 742.477888c-137.120931 0-248.041664-108.300027-248.041665-242.130183V242.129038C263.534532 108.430604 374.456412 0 511.576197 0c136.906738 0 248.014174 108.430604 248.014174 242.129038v258.218667c0 133.830157-111.107436 242.129038-248.014174 242.129038m46.815356 163.975159V977.72528c0 25.548456-20.975964 46.273575-46.829101 46.273575-25.90468 0-46.88179-20.725119-46.88179-46.274721v-71.299722C254.171919 883.196564 89.914989 706.182013 89.914989 491.760537c0-25.548456 20.97711-46.27472 46.8291-46.27472s46.855445 20.726264 46.855446 46.27472c0 179.125548 147.154756 324.855409 328.06715 324.855409 180.755472 0 327.831195-145.731007 327.831194-324.855409 0-25.548456 20.975964-46.27472 46.829101-46.27472 25.90468 0 46.88179 20.726264 46.88179 46.27472 0 214.501655-164.30962 391.567749-374.818363 414.691365" p-id="5227" fill="#ffffff"></path></svg>