<?xml version="1.0" standalone="no"?><!DOCTYPE svg PUBLIC "-//W3C//DTD SVG 1.1//EN" "http://www.w3.org/Graphics/SVG/1.1/DTD/svg11.dtd"><svg t="1532398788798" class="icon" style="" viewBox="0 0 1118 1024" version="1.1" xmlns="http://www.w3.org/2000/svg" p-id="3325" xmlns:xlink="http://www.w3.org/1999/xlink" width="218.359375" height="200"><defs><style type="text/css"></style></defs><path d="M321.874996 472.374994c-32.375 0-58.749999-25.25-58.749999-56.249999 0-31 26.375-56.249999 58.749999-56.249999 32.375 0 58.749999 25.25 58.749999 56.249999C380.499995 447.124994 354.249995 472.374994 321.874996 472.374994L321.874996 472.374994 321.874996 472.374994zM556.874993 472.374994c-32.375 0-58.749999-25.25-58.749999-56.249999 0-31 26.375-56.249999 58.749999-56.249999s58.749999 25.25 58.749999 56.249999C615.624992 447.124994 589.249992 472.374994 556.874993 472.374994L556.874993 472.374994 556.874993 472.374994zM791.87499 472.374994c-32.375 0-58.749999-25.25-58.749999-56.249999 0-31 26.375-56.249999 58.749999-56.249999 32.375 0 58.749999 25.25 58.749999 56.249999C850.749989 447.124994 824.249989 472.374994 791.87499 472.374994L791.87499 472.374994 791.87499 472.374994zM573.499993 1023.999987c-12 0-23.375-4.75-31.375-13.25L397.749995 864.749989 157.124998 864.749989C69.624999 864.749989 0 790.99999 0 707.374991L0 151.749998C0 67.999999 69.749999 0 157.124998 0l801.49999 0c87.499999 0 158.624998 67.999999 158.624998 151.749998l0 555.624993c0 83.749999-71.124999 157.374998-158.499998 157.374998l-232.624997 0.75-118.874998 142.749998c-7.75 9.5-19.375 15.125-31.875 15.625C574.499993 1023.999987 573.999993 1023.999987 573.499993 1023.999987L573.499993 1023.999987zM165.874998 91.374999c-40.499999 0-73.499999 31.5-73.499999 70.374999l0 541.499993c0 38.75 33 70.374999 73.499999 70.374999l250.624997 0c12 0 23.375 4.875 31.375 13.25l122.999998 133.499998 100.374999-131.374998c7.875-9.625 20-15.5 32.875-15.625l246.374997 0.25c41.249999 0 74.249999-31.5 74.249999-70.249999L1024.749987 161.624998c0-38.75-33-70.374999-73.499999-70.374999L165.874998 91.374999 165.874998 91.374999zM165.874998 91.374999" p-id="3326"></path></svg>