<?xml version="1.0" standalone="no"?><!DOCTYPE svg PUBLIC "-//W3C//DTD SVG 1.1//EN" "http://www.w3.org/Graphics/SVG/1.1/DTD/svg11.dtd"><svg t="1532355782787" class="icon" style="" viewBox="0 0 1024 1024" version="1.1" xmlns="http://www.w3.org/2000/svg" p-id="8767" xmlns:xlink="http://www.w3.org/1999/xlink" width="200" height="200"><defs><style type="text/css"></style></defs><path d="M616.086443 921.281964c-40.013106 0-75.217656 1.034243-104.163021 3.734019-28.918502-2.686345-64.069324-3.734019-103.961546-3.734019-115.015854 0-217.325298 43.572513-217.325297 75.754924 0 30.839239 84.995951 27.400717 199.729739 26.232158a615.052083 615.052083 0 0 0 123.168911-12.840729 623.890158 623.890158 0 0 0 120.119909 12.115415c114.653198 1.155128 199.595422 4.580218 199.595422-26.044113 0-31.954072-102.242285-75.217656-217.177549-75.217655z" fill="#F9AE07" p-id="8768"></path><path d="M902.11501 604.803678q-32.343592-87.051005-70.476257-171.791753 1.786419-20.738582 1.786419-41.59805C833.425172 175.243706 722.78806 0 512.500986 0S191.549936 175.243706 191.549936 391.413875c0 13.16309 0.564132 26.17843 1.611807 39.005727A2781.978719 2781.978719 0 0 0 121.718402 605.233493C77.474302 725.245949 75.51327 833.760849 90.906026 841.819883c10.946855 5.735346 50.94653-36.22536 89.052332-104.136158 25.184483 160.025562 131.563739 279.715657 332.55606 279.715657 200.428189 0 306.780581-119.045372 332.32772-278.439643 37.904326 66.60792 77.3533 107.614974 88.232996 101.946787 15.446483-8.059035 13.472019-116.345595-30.946692-236.102848z" fill="#2c2c2c" p-id="8769"></path><path d="M426.578246 128.178944c-31.201895 0.604428-55.795382 37.380488-54.935752 82.148425s26.87688 80.55005 58.078776 79.932191 55.808814-37.380488 54.935752-82.134993c-0.85963-44.754505-26.863448-80.55005-58.078776-79.945623z m172.476771 0.832767c-31.564552-0.604428-57.850436 35.016505-58.723499 79.542671s23.989059 81.114183 55.553612 81.71861c31.564552 0.604428 57.863868-35.016505 58.73693-79.542671s-24.002491-81.127614-55.567043-81.71861z m118.588693 358.976261a1226.638782 1226.638782 0 0 1-207.170914 16.66877 1231.742837 1231.742837 0 0 1-203.624939-16.077774c-41.665209 51.604684-44.942549 127.507358-44.94255 212.167516 0 155.445344 87.924067 281.475213 250.595679 281.475212 162.65818 0 250.595679-126.016437 250.595679-281.475212 0-84.982519-3.331068-161.153827-45.452955-212.758512z" fill="#FFFFFF" p-id="8770"></path><path d="M512.500986 316.652898c-109.267076 0-197.849298 21.987733-197.849298 39.583292s115.781463 65.963198 197.849298 65.963197 197.835866-49.549631 197.835866-65.963197-88.582221-39.583291-197.849298-39.583292z" fill="#F9AE07" p-id="8771"></path><path d="M831.638753 433.011925c0.040295-0.402952 0.040295-0.792472 0.080591-1.181992-80.335143 26.594814-193.6586 43.15613-319.23179 43.15613-125.908983 0-239.487643-16.655338-319.86308-43.384469Q166.983312 488.807307 143.961337 547.087559a1025.512144 1025.512144 0 0 0 164.83412 38.750524v147.157971a675.535137 675.535137 0 0 0 82.309605 9.536524 336.088603 336.088603 0 0 0 58.374274-3.680293V599.592169c20.72515 0.940221 41.718935 1.464058 63.02165 1.464058a1197.062125 1197.062125 0 0 0 367.559133-53.646307q-22.927953-57.729551-48.421366-114.397995z" fill="#E91F1F" p-id="8772"></path><path d="M445.060299 184.753367a29.281159 29.281159 0 0 0-24.902417 32.236138 29.281159 29.281159 0 0 0 24.902417 32.222706 29.281159 29.281159 0 0 0 24.888985-32.236138 29.281159 29.281159 0 0 0-24.888985-32.222706z m183.208718 20.483379a38.965432 38.965432 0 0 0-35.164254-8.797779 53.914941 53.914941 0 0 0-36.346246 19.046185s-5.950254 8.193352-1.759556 13.203384 11.712464-2.928116 11.712464-2.928115a41.315984 41.315984 0 0 1 26.379906-14.654012 39.354952 39.354952 0 0 1 23.451791 5.856232s7.32029 5.37269 11.725895 0a10.20811 10.20811 0 0 0 0-11.725895z" fill="" p-id="8773"></path></svg>