<?xml version="1.0" standalone="no"?><!DOCTYPE svg PUBLIC "-//W3C//DTD SVG 1.1//EN" "http://www.w3.org/Graphics/SVG/1.1/DTD/svg11.dtd"><svg t="1532329386438" class="icon" style="" viewBox="0 0 1024 1024" version="1.1" xmlns="http://www.w3.org/2000/svg" p-id="6292" xmlns:xlink="http://www.w3.org/1999/xlink" width="200" height="200"><defs><style type="text/css"></style></defs><path d="M455.111111 455.111111v-56.888889h-56.888889v-56.888889h-56.888889v113.777778h113.777778z m284.444445 113.777778h56.888888v-56.888889h-56.888888v56.888889z m-284.444445-56.888889h-113.777778v56.888889h113.777778v56.888889h56.888889v-170.666667h-56.888889v56.888889zM0 0v341.333333h341.333333V0H0z m56.888889 210.488889V56.888889h227.555555v227.555555H56.888889V210.488889zM113.777778 113.777778v113.777778h113.777778V113.777778H113.777778z m199.111111 568.888889H0v341.333333h341.333333V682.666667h-28.444444z m-256 210.488889V739.555556h227.555555v227.555555H56.888889v-73.955555zM113.777778 796.444444v113.777778h113.777778v-113.777778H113.777778zM682.666667 0v341.333333h341.333333V0H682.666667z m56.888889 210.488889V56.888889h227.555555v227.555555h-227.555555V210.488889zM796.444444 113.777778v113.777778h113.777778V113.777778h-113.777778z m-398.222222 227.555555h56.888889v-56.888889h-56.888889v56.888889z m-113.777778 113.777778H227.555556v56.888889h113.777777v-56.888889h-56.888889z m-170.666666 56.888889h56.888889v-56.888889H113.777778v56.888889z m-56.888889 56.888889h56.888889v-56.888889H56.888889v56.888889z m-56.888889-113.777778h56.888889v-56.888889H0v56.888889z m170.666667 113.777778h56.888889v-56.888889H170.666667v56.888889z m284.444444 170.666667h56.888889v-56.888889h-56.888889v56.888889z m284.444445 0h56.888888v-56.888889h-56.888888v56.888889z m-227.555556 56.888888h56.888889v-56.888888h-56.888889v56.888888z m-113.777778 56.888889h56.888889v-56.888889h-56.888889v56.888889z m113.777778 56.888889v-56.888889h-56.888889v113.777778h113.777778v-56.888889h-56.888889z m56.888889 113.777778h56.888889v-56.888889h-56.888889v56.888889z m0-170.666667h56.888889v-56.888889h-56.888889v56.888889z m-227.555556-227.555555v56.888889h113.777778v-56.888889h-113.777778z m398.222223-56.888889h-170.666667v113.777778h56.888889v-56.888889h56.888889v56.888889h56.888889v-113.777778z m56.888888-56.888889h56.888889v-56.888889h56.888889v-56.888889h-170.666666v56.888889h56.888888v56.888889z m113.777778 56.888889h56.888889v-113.777778h-56.888889v113.777778z m56.888889 0v56.888889h-56.888889v-56.888889h-56.888889v56.888889h-56.888889v56.888889h170.666667v56.888889h56.888889v-170.666667h-56.888889z m0 227.555555h-113.777778v113.777778h113.777778v-56.888889h56.888889v-56.888889h-56.888889z m-284.444444 227.555556h56.888889v-56.888889h-56.888889v56.888889z m227.555555-56.888889h-113.777778v56.888889h170.666667v-56.888889h-56.888889z m56.888889 0h56.888889v-56.888889h-56.888889v56.888889z m-227.555555 0h56.888888v-56.888889h-56.888888v56.888889z m56.888888-113.777778v-56.888889h-113.777777v113.777778h56.888889v-56.888889h56.888888z m0-56.888889h56.888889v-56.888888h-56.888889v56.888888z m-113.777777-341.333333v-56.888889h-56.888889v56.888889h-56.888889v56.888889h170.666667v-56.888889h-56.888889z m-170.666667 0h56.888889v-56.888889h-56.888889v56.888889z m56.888889-56.888889h56.888889v-56.888889h-56.888889v56.888889z m0-113.777778h56.888889V227.555556h-56.888889V170.666667h56.888889V113.777778h-113.777778v113.777778h-56.888889v56.888888h113.777778z m-170.666667-56.888888h56.888889V170.666667h-56.888889v56.888889z m56.888889-113.777778h56.888889V56.888889h-56.888889v56.888889z m56.888889-56.888889h56.888889V0h-56.888889v56.888889z" p-id="6293" fill="#00d5f7"></path></svg>