<?xml version="1.0" standalone="no"?><!DOCTYPE svg PUBLIC "-//W3C//DTD SVG 1.1//EN" "http://www.w3.org/Graphics/SVG/1.1/DTD/svg11.dtd"><svg t="1533127671850" class="icon" style="" viewBox="0 0 1024 1024" version="1.1" xmlns="http://www.w3.org/2000/svg" p-id="13566" xmlns:xlink="http://www.w3.org/1999/xlink" width="200" height="200"><defs><style type="text/css"></style></defs><path d="M981.333333 754.972444V172.259556a45.084444 45.084444 0 0 0-45.084444-44.999112L87.253333 127.075556a44.643556 44.643556 0 0 0-44.629333 44.544v692.992a44.643556 44.643556 0 0 0 44.629333 44.544l724.707556-0.142223c1.678222 0.142222 4.864 0.312889 9.258667 0.312889 22.016 0 77.710222-5.148444 119.352888-52.864 40.561778-46.421333 41.073778-92.757333 40.760889-101.489778z m-63.744 57.912889c-24.803556 32.270222-48.896 43.392-76.728889 48.440889 1.749333-2.176 3.285333-4.266667 4.679112-6.357333 14.407111-21.546667 18.688-46.407111 19.754666-63.473778 0.327111-5.290667 4.792889-9.287111 10.382222-9.287111h0.782223c10.922667 0 20.152889-1.962667 29.027555-6.172444a118.272 118.272 0 0 0 30.819556-21.617778l1.009778 0.071111a0.810667 0.810667 0 0 1 0.213333 0.625778c-0.924444 16.028444-4.039111 37.091556-19.939556 57.770666z m20.209778-111.36c-12.017778 26.453333-40.803556 45.653333-68.48 45.653334-6.328889 0-12.529778-0.995556-18.389333-2.958223l-0.867556-0.312888c-7.153778-2.360889-14.805333-5.219556-21.333333 2.304-3.953778 4.565333-3.171556 13.056-2.062222 18.389333l0.199111 0.924444c0.085333 0.384 7.324444 39.637333-12.174222 68.920889-9.969778 15.032889-25.856 25.543111-47.502223 31.274667l-666.339555-0.042667a11.064889 11.064889 0 0 1-11.064889-11.050666V182.855111a12.231111 12.231111 0 0 1 12.216889-12.216889h824.106666c6.471111 0 11.747556 5.262222 11.747556 11.733334l0.028444 499.712-0.085333 19.441777z m-109.667555-323.328H569.486222a21.589333 21.589333 0 0 0 0 43.136h258.631111a21.589333 21.589333 0 1 0 0.014223-43.136z m0 211.797334H569.486222c-11.932444 0-21.603556 9.656889-21.603555 21.560889s9.671111 21.560889 21.603555 21.560888h258.631111a21.560889 21.560889 0 0 0 0.014223-43.121777z m-394.609778-33.422223a169.984 169.984 0 0 0-28.117334-16.028444c39.281778-24.220444 65.607111-67.470222 65.607112-116.849778 0-75.776-61.752889-137.429333-137.671112-137.429333-75.904 0-137.656889 61.653333-137.656888 137.429333 0 50.531556 27.548444 94.663111 68.366222 118.528-9.002667 4.224-17.706667 9.102222-25.827556 14.876445a171.292444 171.292444 0 0 0-37.816889 36.693333 166.968889 166.968889 0 0 0-33.749333 101.148444 19.029333 19.029333 0 0 0 38.030222 0c0-34.801778 13.610667-67.669333 38.328889-92.515555 24.732444-24.746667 57.358222-38.357333 91.192889-38.4l1.664 0.085333c1.351111 0 2.716444-0.156444 4.039111-0.426666l0.355556-0.085334a129.464889 129.464889 0 0 1 88.490666 38.357334 130.033778 130.033778 0 0 1 38.328889 92.515555 19.029333 19.029333 0 0 0 38.030222 0c0-36.807111-11.690667-71.779556-33.792-101.134222a168.064 168.064 0 0 0-37.802666-36.764445z m-100.195556-32.170666c-55.637333 0-100.906667-45.184-100.906666-100.707556 0-55.537778 45.269333-100.721778 100.906666-100.721778s100.906667 45.184 100.906667 100.721778-45.269333 100.707556-100.906667 100.707556z" p-id="13567" data-spm-anchor-id="a313x.7781069.0.i14" class="selected" fill="#ffffff"></path></svg>