<?xml version="1.0" standalone="no"?><!DOCTYPE svg PUBLIC "-//W3C//DTD SVG 1.1//EN" "http://www.w3.org/Graphics/SVG/1.1/DTD/svg11.dtd"><svg t="1532354852926" class="icon" style="" viewBox="0 0 1256 1024" version="1.1" xmlns="http://www.w3.org/2000/svg" p-id="3976" xmlns:xlink="http://www.w3.org/1999/xlink" width="245.3125" height="200"><defs><style type="text/css"></style></defs><path d="M475.865 62c-214.979 0-391.109 146.569-391.109 332.605 0 107.412 58.658 195.632 156.474 264.041l-39.157 117.626 136.665-68.564c48.908 9.751 88.221 19.657 136.973 19.657 12.227 0 24.454-0.619 36.527-1.548-7.584-26.156-12.073-53.551-12.073-81.875 0-170.868 146.723-309.545 332.451-309.545 12.692 0 25.228 0.929 37.61 2.321-33.741-157.713-202.133-274.72-394.359-274.72zM336.259 351.424c-44.884 0-76.613-25.228-76.613-65.778s31.729-68.873 76.613-68.873 76.613 28.324 76.613 68.873-31.729 65.778-76.613 65.778zM627.232 351.424c-44.884 0-76.612-25.228-76.612-65.778s31.729-68.873 76.612-68.873 76.612 28.324 76.612 68.873-31.729 65.778-76.612 65.778z" p-id="3977" fill="#00d5f7"></path><path d="M1189.518 639.146c0-156.32-156.474-283.853-332.141-283.853-186.037 0-332.605 127.377-332.605 283.853 0 156.629 146.569 283.853 332.605 283.853 39.002 0 78.16-9.751 117.317-19.657l107.258 58.658-29.407-97.661c78.624-58.969 136.973-137.127 136.973-225.193zM752.907 602.929c-33.895 0-61.445-22.287-61.445-49.991s27.549-49.991 61.445-49.991 61.445 22.287 61.445 49.991-27.395 49.991-61.445 49.991zM964.325 602.929c-33.895 0-61.445-22.287-61.445-49.991s27.549-49.991 61.445-49.991 61.445 22.287 61.445 49.991-27.549 49.991-61.445 49.991z" p-id="3978" fill="#00d5f7"></path></svg>