<?xml version="1.0" standalone="no"?><!DOCTYPE svg PUBLIC "-//W3C//DTD SVG 1.1//EN" "http://www.w3.org/Graphics/SVG/1.1/DTD/svg11.dtd"><svg t="1533563168930" class="icon" style="" viewBox="0 0 1024 1024" version="1.1" xmlns="http://www.w3.org/2000/svg" p-id="6679" xmlns:xlink="http://www.w3.org/1999/xlink" width="200" height="200"><defs><style type="text/css"></style></defs><path d="M509.226667 0.426667A310.101333 310.101333 0 0 0 447.189333 614.4V682.666667H323.157333a62.037333 62.037333 0 1 0 0 124.032h124.032v124.032a62.037333 62.037333 0 1 0 124.074667 0v-124.032h124.032a62.037333 62.037333 0 0 0 0-124.032H571.264v-68.266667A310.101333 310.101333 0 0 0 509.226667 0.426667z m186.026666 310.101333a186.069333 186.069333 0 1 1-372.096 0 186.069333 186.069333 0 0 1 372.138667 0z" p-id="6680" fill="#f87de6"></path></svg>