<?xml version="1.0" standalone="no"?><!DOCTYPE svg PUBLIC "-//W3C//DTD SVG 1.1//EN" "http://www.w3.org/Graphics/SVG/1.1/DTD/svg11.dtd"><svg t="1532412267049" class="icon" style="" viewBox="0 0 1024 1024" version="1.1" xmlns="http://www.w3.org/2000/svg" p-id="1666" xmlns:xlink="http://www.w3.org/1999/xlink" width="200" height="200"><defs><style type="text/css"></style></defs><path d="M896.081097 447.755814 575.957149 447.755814 575.957149 128.153752l-0.013303 0c0.001023-0.174985 0.013303-0.346901 0.013303-0.522909 0-35.322483-28.634154-63.956637-63.956637-63.956637s-63.956637 28.634154-63.956637 63.956637c0 0.411369 0.022513 0.816598 0.030699 1.225921l0 318.89905L128.441812 447.755814l0 0.013303c-0.174985-0.001023-0.347924-0.013303-0.523933-0.013303-35.322483 0-63.956637 28.634154-63.956637 63.956637 0 35.323507 28.634154 63.956637 63.956637 63.956637 0.398066 0 0.789992-0.022513 1.186012-0.029676l318.969659 0 0 318.928726c-0.008186 0.408299-0.030699 0.814552-0.030699 1.224898 0 35.323507 28.634154 63.956637 63.956637 63.956637s63.956637-28.633131 63.956637-63.956637L575.956126 575.638389l318.937936 0c0.396019 0.007163 0.788969 0.029676 1.186012 0.029676 35.322483 0 63.956637-28.633131 63.956637-63.956637C960.037734 476.389968 931.402557 447.755814 896.081097 447.755814z" p-id="1667" fill="#ffffff"></path></svg>