<?xml version="1.0" standalone="no"?><!DOCTYPE svg PUBLIC "-//W3C//DTD SVG 1.1//EN" "http://www.w3.org/Graphics/SVG/1.1/DTD/svg11.dtd"><svg t="1533556840132" class="icon" style="" viewBox="0 0 1024 1024" version="1.1" xmlns="http://www.w3.org/2000/svg" p-id="3078" xmlns:xlink="http://www.w3.org/1999/xlink" width="200" height="200"><defs><style type="text/css"></style></defs><path d="M849.69104501 512c0 8.142447-3.234671 15.950274-8.99179201 21.707394l-255.82655 255.82655c-11.989055 11.988032-31.425733 11.988032-43.414789 0-11.990079-11.989055-11.990079-31.426757-1e-8-43.415812l234.118132-234.118132-234.11813199-234.11915501c-11.990079-11.988032-11.990079-31.426757 0-43.41478899 11.989055-11.989055 31.425733-11.989055 43.414789 0l255.82655 255.82655C846.456375 496.049726 849.691045 503.85857601 849.69104501 512z" p-id="3079" fill="#f7ef0a"></path><path d="M849.69104501 512c0 16.954137-13.745049 30.699186-30.69918601 30.699186l-613.983719 0c-16.954137 0-30.699186-13.745049-30.699186-30.699186s13.745049-30.699186 30.699186-30.699186l613.983719 0C835.945997 481.300814 849.691045 495.045863 849.69104501 512z" p-id="3080" fill="#f7ef0a"></path></svg>