<?xml version="1.0" standalone="no"?><!DOCTYPE svg PUBLIC "-//W3C//DTD SVG 1.1//EN" "http://www.w3.org/Graphics/SVG/1.1/DTD/svg11.dtd"><svg t="1534683853109" class="icon" style="" viewBox="0 0 1024 1024" version="1.1" xmlns="http://www.w3.org/2000/svg" p-id="27126" xmlns:xlink="http://www.w3.org/1999/xlink" width="200" height="200"><defs><style type="text/css"></style></defs><path d="M921.451928 200.185298c-74.731028-79.913051-192.187137-85.804225-205.285456-83.863013-106.169041 5.606695-170.742732 79.349209-204.226335 146.989749-33.363875-67.605747-97.584526-141.347239-202.413036-146.81374-15.07637-1.974981-132.426055 3.842515-207.119221 83.687004C48.448944 257.809717 30.904359 337.829192 50.617329 439.502849 83.961762 568.685024 209.49278 668.452261 320.247256 756.51083c75.980485 60.413951 147.765415 117.474528 168.272471 168.751379l0.035816 0c3.843538 9.344832 13.013385 15.870456 23.681352 15.870456 11.550057 0 20.982894-7.653307 24.245194-18.127869 21.724791-50.713009 92.25617-106.963127 167.109995-166.493965C814.347584 668.452261 939.895999 568.685024 973.610868 437.950494 992.937029 337.829192 975.408817 257.809717 921.451928 200.185298zM923.671479 426.736081C894.613676 539.305903 776.206916 633.397884 671.746796 716.448392c-66.141396 52.582589-124.931361 99.592252-159.950945 147.978263-34.966373-48.419779-93.579305-95.396697-159.703305-147.978263-104.459097-83.050508-222.848461-177.177282-251.573689-288.159956-15.569604-80.58434-3.64911-144.134725 35.425837-188.887998 61.698201-70.744227 166.369122-72.013127 169.06758-71.943542 143.957693 7.582699 180.758853 170.407088 182.256974 177.355337l0.440022-0.106424c2.609431 11.462053 12.378935 20.101827 24.527626 20.101827 14.176884 0 25.674753-11.354606 25.744337-25.532513 7.528464-28.354791 50.66082-164.976402 181.956122-171.924651 0.282433-0.456395 106.399285 1.447978 167.972643 72.049966C926.986991 284.154735 938.908508 347.70512 923.671479 426.736081z" p-id="27127" fill="#00D9D9"></path></svg>