<?xml version="1.0" standalone="no"?><!DOCTYPE svg PUBLIC "-//W3C//DTD SVG 1.1//EN" "http://www.w3.org/Graphics/SVG/1.1/DTD/svg11.dtd"><svg t="1534666095708" class="icon" style="" viewBox="0 0 1024 1024" version="1.1" xmlns="http://www.w3.org/2000/svg" p-id="3229" xmlns:xlink="http://www.w3.org/1999/xlink" width="200" height="200"><defs><style type="text/css"></style></defs><path d="M512 834.56c-35.84 0-71.68-5.12-107.52-15.36l-153.6 87.04v-148.48C133.12 691.2 61.44 573.44 61.44 445.44c0-209.92 199.68-378.88 445.44-378.88s445.44 174.08 445.44 378.88c5.12 215.04-189.44 389.12-440.32 389.12zM512 0C225.28 0 0 199.68 0 445.44 0 583.68 71.68 716.8 189.44 798.72V1024l225.28-138.24c30.72 5.12 66.56 5.12 97.28 5.12 286.72 0 512-199.68 512-445.44S798.72 0 512 0z m225.28 353.28H286.72c-15.36 0-30.72 10.24-30.72 25.6s15.36 30.72 30.72 30.72h445.44c15.36 0 30.72-15.36 30.72-30.72 5.12-15.36-10.24-25.6-25.6-25.6z m-66.56 189.44H353.28c-15.36 0-30.72 15.36-30.72 30.72s15.36 30.72 30.72 30.72h322.56c15.36 0 30.72-15.36 30.72-30.72-5.12-15.36-20.48-30.72-35.84-30.72z" fill="#00D9D9" p-id="3230"></path></svg>