<?xml version="1.0" standalone="no"?><!DOCTYPE svg PUBLIC "-//W3C//DTD SVG 1.1//EN" "http://www.w3.org/Graphics/SVG/1.1/DTD/svg11.dtd"><svg t="1534683357622" class="icon" style="" viewBox="0 0 1024 1024" version="1.1" xmlns="http://www.w3.org/2000/svg" p-id="14749" xmlns:xlink="http://www.w3.org/1999/xlink" width="200" height="200"><defs><style type="text/css"></style></defs><path d="M914.952 339.362c-38.394 0-38.394 38.339-38.394 38.339v382.844c0 68.018-47.994 116.066-115.13 116.066h-498.91c-67.136 0-115.129-47.994-115.129-116.067v-497.973c0-67.136 47.994-115.074 115.129-115.074h383.782c0 0 38.394 0 38.394-38.339 0-38.449-38.394-38.449-38.394-38.449h-383.782c-115.129 0-191.863 76.788-191.863 191.863v497.973c0 116.012 76.733 192.802 191.863 192.802h498.856c115.129 0 191.919-56.323 191.919-192.802v-382.844c0 0 0-38.339-38.339-38.339z" p-id="14750" fill="#00D9D9"></path><path d="M262.573 751.664c-0.166 0.828-0.221 6.509 1.435 8.164 1.656 1.71 7.557 1.71 8.219 1.435 34.918-9.157 109.062-14.95 132.34-38.173l397.076-397.076-103.764-103.709-397.076 396.966c-23.28 23.28-29.017 97.421-38.228 132.396z" p-id="14751" fill="#00D9D9"></path><path d="M931.777 195.989c28.686-28.686 28.686-75.135 0-103.819-28.74-28.686-75.135-28.686-103.82 0l-89.367 89.367 103.819 103.764 89.367-89.312z" p-id="14752" fill="#00D9D9"></path></svg>