<?xml version="1.0" standalone="no"?><!DOCTYPE svg PUBLIC "-//W3C//DTD SVG 1.1//EN" "http://www.w3.org/Graphics/SVG/1.1/DTD/svg11.dtd"><svg t="1533633462460" class="icon" style="" viewBox="0 0 1024 1024" version="1.1" xmlns="http://www.w3.org/2000/svg" p-id="7679" xmlns:xlink="http://www.w3.org/1999/xlink" width="200" height="200"><defs><style type="text/css"></style></defs><path d="M511.574296 678.085283c45.611118 0 83.073049 37.340302 83.073049 83.073049S557.185414 844.109752 511.574296 844.109752 428.501247 806.76945 428.501247 761.036703s37.340302-82.951419 83.073049-82.95142m0-249.097517c45.611118 0 83.073049 37.340302 83.073049 83.073049s-37.340302 83.073049-83.073049 83.073049c-45.611118 0-83.073049-37.340302-83.073049-83.073049s37.340302-83.073049 83.073049-83.073049m0-249.097518c45.611118 0 83.073049 37.340302 83.073049 83.073049 0 45.611118-37.340302 83.073049-83.073049 83.073049-45.611118 0-83.073049-37.340302-83.073049-83.073049 0-45.732747 37.340302-83.073049 83.073049-83.073049z m0 0" fill="" p-id="7680"></path></svg>