<?xml version="1.0" standalone="no"?><!DOCTYPE svg PUBLIC "-//W3C//DTD SVG 1.1//EN" "http://www.w3.org/Graphics/SVG/1.1/DTD/svg11.dtd"><svg t="1534681868648" class="icon" style="" viewBox="0 0 1024 1024" version="1.1" xmlns="http://www.w3.org/2000/svg" p-id="10782" xmlns:xlink="http://www.w3.org/1999/xlink" width="200" height="200"><defs><style type="text/css"></style></defs><path d="M559.251535 334.55387c-15.172511-4.046003-30.814648-6.863755-47.251535-6.863755-101.800325 0-184.309885 82.50956-184.309885 184.309885 0 101.800325 82.50956 184.34601 184.309885 184.34601 101.800325 0 184.309885-82.50956 184.309885-184.34601 0-16.436887-2.853877-32.115149-6.89988-47.28766l143.199605-273.358075-273.358075 143.199605z m-47.251535 279.86058c-56.571791 0-102.41445-45.842659-102.41445-102.41445s45.842659-102.41445 102.41445-102.41445c56.535666 0 102.41445 45.842659 102.41445 102.41445s-45.842659 102.41445-102.41445 102.41445zM962.515205 315.371481c-8.742256-20.013265-32.079023-29.152896-52.056163-20.41064-20.013265 8.742256-29.152896 32.042898-20.41064 52.056163 22.831017 52.236788 34.391025 107.760954 34.391025 164.946871 0 227.407042-185.032386 412.439427-412.439427 412.439427S99.560573 739.370917 99.560573 511.963875 284.592958 99.524448 512 99.524448c57.222042 0 112.710083 11.560008 164.946871 34.391025 19.97714 8.742256 43.313907-0.397375 52.056163-20.41064 8.742256-20.013265-0.397375-43.313907-20.41064-52.056163C646.312848 34.2104 580.167925 20.41064 511.963875 20.41064 240.990052 20.48289 20.48289 240.990052 20.48289 512c0 271.046074 220.507162 491.553235 491.51711 491.553235 271.046074 0 491.51711-220.507162 491.51711-491.553235 0.036125-68.167925-13.79976-134.312848-41.001905-196.628519z m0 0" p-id="10783"></path></svg>