<?xml version="1.0" standalone="no"?><!DOCTYPE svg PUBLIC "-//W3C//DTD SVG 1.1//EN" "http://www.w3.org/Graphics/SVG/1.1/DTD/svg11.dtd"><svg t="1534682668426" class="icon" style="" viewBox="0 0 1024 1024" version="1.1" xmlns="http://www.w3.org/2000/svg" p-id="12308" xmlns:xlink="http://www.w3.org/1999/xlink" width="200" height="200"><defs><style type="text/css"></style></defs><path d="M512 64.303538c-68.49807 0-133.399219 15.392572-191.44524 42.892903-0.192382 0.089028-0.38681 0.177032-0.577145 0.270153-0.00614 0.00307-0.01228 0.00614-0.01842 0.008186l0 0.001023c-10.628058 5.197372-17.950837 16.112979-17.950837 28.740578 0 12.628622 7.321756 23.543206 17.950837 28.740578l0 0.004093 0.008186 0c4.233418 2.069125 8.989745 3.233648 14.019295 3.233648 4.805446 0 9.359158-1.067308 13.44829-2.965541l0.030699 0c49.863664-23.702841 105.649202-36.968983 164.53331-36.968983 211.933877 0 383.739824 171.805948 383.739824 383.739824s-171.805948 383.739824-383.739824 383.739824-383.739824-171.805948-383.739824-383.739824c0-37.906332 5.498224-74.52739 15.737426-109.113093 0.964978-3.048429 1.487887-6.29231 1.487887-9.658987 0-3.178389-0.470721-6.246261-1.334391-9.144264l0-0.021489-0.00614 0c-3.941775-13.192464-16.164145-22.812565-30.637788-22.812565-14.394848 0-26.566052 9.512654-30.576389 22.594601l-0.01535 0c-12.108782 40.600697-18.611893 83.619466-18.611893 128.155798 0 247.25636 200.440102 447.696462 447.696462 447.696462s447.696462-200.440102 447.696462-447.696462S759.255337 64.303538 512 64.303538z" p-id="12309" fill="#2c2c2c"></path><path d="M590.209246 376.428302c-1.217734-0.819668-2.508123-1.559519-3.861958-2.216481-6.900154-3.827165-14.119579-7.14677-21.61939-9.890254L211.54809 203.105814c-11.673877-5.328355-24.974811-2.974751-34.152844 4.897543-12.745279 9.931187-16.195867 28.240181-7.437389 42.211381L373.664352 575.116503c24.799826 51.420113 77.423347 86.900186 138.335648 86.900186 84.773755 0 153.49593-68.722174 153.49593-153.49593C665.49593 452.312596 635.278721 403.171386 590.209246 376.428302zM435.289897 375.542118c-28.969798 16.747429-51.955302 42.690288-64.971757 73.837682l-90.906429-144.992255L435.289897 375.542118zM512 585.268724c-42.386366 0-76.747965-34.361599-76.747965-76.747965 0-42.386366 34.361599-76.747965 76.747965-76.747965 42.386366 0 76.747965 34.361599 76.747965 76.747965C588.747965 550.907125 554.386366 585.268724 512 585.268724z" p-id="12310" fill="#2c2c2c"></path></svg>