<?xml version="1.0" standalone="no"?><!DOCTYPE svg PUBLIC "-//W3C//DTD SVG 1.1//EN" "http://www.w3.org/Graphics/SVG/1.1/DTD/svg11.dtd"><svg t="1534683720220" class="icon" style="" viewBox="0 0 1024 1024" version="1.1" xmlns="http://www.w3.org/2000/svg" p-id="20941" xmlns:xlink="http://www.w3.org/1999/xlink" width="200" height="200"><defs><style type="text/css"></style></defs><path d="M773.244329 939.88608H257.816329c-40.624363 0-73.574098-31.721795-73.574099-70.708904V586.546218h-36.735884c-28.958929 0-54.64335-15.656241-66.820426-40.931348-12.177076-25.275107-8.18627-54.131708 10.539822-75.416009L460.835815 99.258519c12.484061-14.325972 32.949735-23.433197 54.745678-23.433197 21.693614 0 42.159288 9.107225 56.178275 25.070451l130.468672 130.877985c14.018987 14.121315 13.507345 36.4289-1.125612 49.936245-14.735285 13.507345-37.963825 12.995703-52.08514-1.125612L517.01409 148.17148 145.97142 517.474568l38.27081-1.637254c40.624363 0 73.574098 31.721795 73.574099 70.708904v282.733286h515.325672V586.546218c0-38.987109 33.052064-70.708904 73.574098-70.708904h36.735885L756.462476 388.336165c-14.018987-14.121315-13.507345-36.4289 1.125612-49.936245 14.735285-13.507345 38.066154-12.995703 52.085141 1.125612l128.626761 129.138403c20.261017 22.819227 24.251824 51.778155 12.074748 76.950935-12.177076 25.275107-37.759169 40.931348-66.820426 40.931348h-36.735885v282.733286c0 38.987109-33.052064 70.606575-73.574098 70.606576z" p-id="20942" fill="#00D9D9"></path><path d="M569.713201 921.876287H461.347457c-29.879884 0-54.131708-23.330868-54.131708-51.982812v-182.144499c0-28.651944 24.354152-51.982812 54.131708-51.982812h108.365744c29.879884 0 54.131708 23.330868 54.131708 51.982812v182.04217c0.102328 28.754272-24.251824 52.08514-54.131708 52.085141zM461.347457 687.748976v182.04217h108.365744V687.748976H461.347457z" p-id="20943" fill="#00D9D9"></path></svg>