<?xml version="1.0" standalone="no"?><!DOCTYPE svg PUBLIC "-//W3C//DTD SVG 1.1//EN" "http://www.w3.org/Graphics/SVG/1.1/DTD/svg11.dtd"><svg t="1534686070884" class="icon" style="" viewBox="0 0 1024 1024" version="1.1" xmlns="http://www.w3.org/2000/svg" p-id="1672" xmlns:xlink="http://www.w3.org/1999/xlink" width="200" height="200"><defs><style type="text/css"></style></defs><path d="M91.648 64h359.424c36.352 3.584 27.648 67.072 27.648 108.032V368.64c0 42.496 8.192 94.72-20.48 107.008-18.432 7.68-68.608 2.56-92.672 2.56h-190.464c-44.032 0-104.448 10.24-111.104-27.136V92.16c5.12-14.336 13.824-24.064 27.648-28.16z m49.664 80.896v255.488h259.072v-259.072h-258.048c-1.536 0-1.024 2.048-1.024 3.584z m432.64-80.896h359.424c14.848 5.12 24.576 15.36 27.648 32.256v349.696c-3.072 14.336-10.752 27.136-25.088 30.72-23.552 6.656-62.464 1.024-90.624 1.024h-184.32c-27.648 0-69.12 5.632-91.648-1.024-31.744-9.728-23.04-71.168-23.04-114.176V179.2c0-49.152-10.752-108.032 27.648-115.2z m49.664 80.896v255.488h259.072v-259.072H624.64c-1.024 0-1.024 2.048-1.024 3.584z m-364.032 74.752c36.352-6.656 64.512 17.408 65.024 50.176 1.024 43.008-43.52 66.56-78.336 48.64-39.936-20.48-37.376-89.088 13.312-98.816z m482.304 0c84.992-15.872 83.456 117.248 0 103.424-53.248-8.704-54.784-93.184 0-103.424z m-293.376 740.864h-355.84c-14.848-4.608-24.576-13.824-29.184-28.672v-357.888c3.584-10.24 11.776-22.528 24.064-26.112 23.552-6.656 61.952-1.024 90.624-1.024h184.32c27.136 0 67.072-6.144 91.648 1.024 33.28 9.728 24.064 70.144 24.064 113.152v188.928c0.512 46.592 10.752 106.496-29.696 110.592z m-307.2-332.8v255.488h259.072v-259.072h-258.048c-1.536 0-1.024 2.048-1.024 3.584z m820.224-48.64v99.84c-2.56 33.792-0.512 72.704-1.024 108.032h-257.024v-58.368c-24.064-2.56-53.248-0.512-79.36-1.024-2.56 75.264-0.512 155.648-1.024 232.96h-47.104c-40.448-8.192-29.184-67.584-29.184-115.2v-184.32c0-27.648-5.632-69.12 1.024-91.648 8.192-26.624 44.032-22.528 79.36-22.528h175.104v158.208h80.896c1.024-52.224-1.536-108.032 1.024-158.208 38.912-2.048 74.752-1.536 77.312 32.256z m-696.32 122.368c38.4-4.096 70.656 32.256 55.296 72.704-20.992 55.808-119.808 34.816-101.376-35.84 5.632-19.456 20.48-34.304 46.08-36.864z m524.8 259.072h-87.04c1.024-30.72-1.536-64 1.024-92.672h85.504v92.672h0.512z m171.52-92.672v60.416c-3.584 16.896-13.312 27.136-29.184 32.256h-61.44c1.024-30.72-1.536-64 1.024-92.672h89.6z" p-id="1673" fill="#515151"></path></svg>