<?xml version="1.0" standalone="no"?><!DOCTYPE svg PUBLIC "-//W3C//DTD SVG 1.1//EN" "http://www.w3.org/Graphics/SVG/1.1/DTD/svg11.dtd"><svg t="1534667021393" class="icon" style="" viewBox="0 0 1024 1024" version="1.1" xmlns="http://www.w3.org/2000/svg" p-id="10541" xmlns:xlink="http://www.w3.org/1999/xlink" width="200" height="200"><defs><style type="text/css"></style></defs><path d="M444.9 529.5c3.5 1.7 7.2 2.5 10.8 2.5 9.3 0 18.3-5.2 22.6-14.2 2.9-6 3.3-12.8 1.1-19.1-2.2-6.3-6.7-11.4-12.8-14.3-6-2.9-12.8-3.3-19.1-1.1-6.3 2.2-11.4 6.7-14.3 12.8-6 12.5-0.8 27.4 11.7 33.4zM542.4 808.7c-17.9 0-35.2-4-51.3-11.7-58.9-28.4-83.8-99.5-55.4-158.4 13.7-28.5 37.7-50 67.7-60.5 29.8-10.5 62-8.7 90.6 5.1 28.5 13.7 50 37.7 60.5 67.7s8.7 62.2-5.1 90.7c-19.5 40.8-61.6 67.1-107 67.1z m-32.6-50.5c36.6 17.4 83.5 0.8 100.9-35.3 8.7-18.2 9.9-38.6 3.2-57.7s-20.4-34.4-38.6-43.1c-18.3-8.8-38.8-10-57.7-3.3-19.1 6.7-34.4 20.4-43.2 38.5-18 37.6-2.2 82.8 35.4 100.9zM618.6 529.5c3.4 1.7 7.1 2.5 10.8 2.5 2.8 0 5.6-0.5 8.3-1.4 6.3-2.2 11.4-6.7 14.3-12.8 2.9-6 3.3-12.8 1.1-19.1-2.2-6.3-6.7-11.4-12.8-14.3-12.4-6-27.4-0.8-33.4 11.7s-0.7 27.4 11.7 33.4z" p-id="10542" fill="#00D9D9"></path><path d="M884.7 845.1c23.6-102.8 48-210.6 72.4-320.3 15.3-69.1-24.3-136.8-90.2-154.3-17.5-4.6-36.8-5.6-55.1-5.9-31.9-0.6-63.7-0.5-96.4-0.4l-49.6 0.1 1.7-8.6c12.7-65.3 12.9-119.6 0.7-170.8-15.5-64.6-68.7-107.2-129.6-103.6-66.9 3.9-117.4 53.7-120.1 118.5-3.2 76.5-30.7 130.6-86.7 170.6-6.9 4.9-16.8 15.5-6 31.3 5.5 8 14.4 15.9 34.3 5.3 4.5-2.4 8.8-5.8 13.3-9.4 59.5-47.9 89.2-108.2 91.1-184.8 1.2-48 31.9-81.8 76.3-84.1 41.5-2 75.2 28.6 83.3 74.6 9.9 56 6.5 111.8-10 165.8-4.9 16-5.1 26.8-0.5 33 4.7 6.4 15.6 9.5 33.2 9.6 24.5 0.2 49.1 0.1 73.7 0 34.6-0.1 69.3-0.2 104 0.3 30.5 0.4 56 11.7 71.7 31.6 15.6 19.9 20.6 47 13.9 76.5-23.1 100.7-46 201.5-69.1 302.2-11.9 51.8-38.3 72.9-91.3 72.9H269v-7.3c0.2-33.6 0.1-115.5 0.1-168.1v-108c0.1-58.9 0.1-117.8-0.2-176.7-0.2-27.8-7.7-35.4-34.9-35.6l-17.3-0.1c-14.4-0.1-29.1-0.2-43.9-0.2-15.3 0-30.5 0.1-45.7 0.5-39.6 0.9-62.5 23.1-62.8 61-0.9 135.1-1 273.4-0.2 423 0.2 35.1 23.9 58.7 59 58.8 203.8 0.5 422.4 0.8 639.8-0.1 58.6-0.2 108.6-40.3 121.8-97.3z m-771 50.2V448.7h107.8v446.5H113.7z" p-id="10543" fill="#00D9D9"></path></svg>