<?xml version="1.0" standalone="no"?><!DOCTYPE svg PUBLIC "-//W3C//DTD SVG 1.1//EN" "http://www.w3.org/Graphics/SVG/1.1/DTD/svg11.dtd"><svg t="1534682111119" class="icon" style="" viewBox="0 0 1024 1024" version="1.1" xmlns="http://www.w3.org/2000/svg" p-id="24111" xmlns:xlink="http://www.w3.org/1999/xlink" width="200" height="200"><defs><style type="text/css"></style></defs><path d="M960.192 449.696a31.264 31.264 0 0 0-62.528 0c0 177.984-172.8 322.752-385.216 322.752-0.544 0-1.056 0.128-1.6 0.16a31.04 31.04 0 0 0-19.744 6.08l-116.608 87.424v-83.296a29.952 29.952 0 0 0-0.448-4.512 31.264 31.264 0 0 0-19.744-34.336c-137.92-52.192-227.04-167.712-227.04-294.304a31.232 31.232 0 0 0-62.464 0c0 146.368 96.352 279.552 247.264 344.576v134.368a31.232 31.232 0 0 0 49.984 24.992l158.496-118.848c243.104-3.744 439.648-174.976 439.648-385.056zM103.456 374.944a31.232 31.232 0 0 0 40-18.752c48.8-134.976 200.448-229.248 368.768-229.248 169.056 0 320.896 94.784 369.216 230.496a31.328 31.328 0 0 0 39.936 18.944 31.264 31.264 0 0 0 18.944-39.904c-57.984-162.688-230.016-272-428.064-272-197.248 0-369.024 108.704-427.52 270.496a31.2 31.2 0 0 0 18.72 39.968z m287.136-74.4a31.232 31.232 0 0 0-31.232 31.232v30.464a31.232 31.232 0 0 0 62.464 0v-30.464a31.232 31.232 0 0 0-31.232-31.232z m243.776 0a31.264 31.264 0 0 0-31.264 31.232v30.464a31.264 31.264 0 0 0 62.496 0v-30.464a31.232 31.232 0 0 0-31.232-31.232z m-44.864 141.44a31.456 31.456 0 0 0-43.168 8.768c-0.128 0.192-13.6 19.776-34.176 19.776-20 0-32.416-18.112-33.28-19.36a31.2 31.2 0 0 0-52.864 33.248c11.232 18.048 41.984 48.608 86.144 48.608 43.968 0 75.104-30.336 86.592-48.256a31.104 31.104 0 0 0-9.248-42.784z" fill="#00D9D9" p-id="24112"></path></svg>