<?xml version="1.0" standalone="no"?><!DOCTYPE svg PUBLIC "-//W3C//DTD SVG 1.1//EN" "http://www.w3.org/Graphics/SVG/1.1/DTD/svg11.dtd"><svg t="1534683654301" class="icon" style="" viewBox="0 0 1024 1024" version="1.1" xmlns="http://www.w3.org/2000/svg" p-id="20162" xmlns:xlink="http://www.w3.org/1999/xlink" width="200" height="200"><defs><style type="text/css"></style></defs><path d="M781.475 143.944h-49.113c-13.584 0-29.257 8.359-29.257 21.944 0 13.584 15.673 27.169 29.257 27.169h49.113c29.257 0 49.113 19.854 49.113 49.113v565.305c0 29.257-19.854 49.113-49.113 49.113h-528.734c-29.257 0-61.649-19.854-61.649-49.113v-565.304c0-29.258 19.854-49.113 49.113-49.113h61.649c13.584 0 18.809-13.585 18.809-27.169 0-13.585-5.225-21.944-18.809-21.944h-61.648c-68.967-0.001-98.225 42.841-98.225 99.268v559.035c0 60.605 36.572 103.447 103.447 103.447h530.822c66.878 0 103.451-35.528 103.451-103.447v-559.035c0-56.426-34.483-99.269-98.224-99.269v0zM301.854 365.471c0 13.584 11.497 25.076 25.077 25.076h368.859c13.584 0 25.080-11.492 25.080-25.076 0-13.585-11.497-25.080-25.080-25.080h-368.859c-13.58 0-25.077 11.496-25.077 25.080v0zM694.746 476.233h-367.815c-13.58 0-25.077 11.496-25.077 25.080 0 13.581 11.497 25.076 25.077 25.076h368.859c13.584 0 25.080-11.496 25.080-25.076-1.044-14.63-12.54-25.080-26.124-25.080v0zM694.746 623.565h-367.815c-13.58 0-25.077 11.497-25.077 25.081 0 13.583 11.497 25.075 25.077 25.075h368.859c13.584 0 25.080-11.492 25.080-25.075-1.044-14.631-12.54-25.081-26.124-25.081v0zM426.199 205.597h171.369c19.855 0 36.572-19.854 36.572-42.843 0-22.987-16.718-42.842-37.616-42.842h-170.325c-20.899 0-37.616 19.854-37.616 42.842s16.718 42.843 37.616 42.843v0zM426.199 205.597z" p-id="20163" fill="#00D9D9"></path></svg>