<?xml version="1.0" standalone="no"?><!DOCTYPE svg PUBLIC "-//W3C//DTD SVG 1.1//EN" "http://www.w3.org/Graphics/SVG/1.1/DTD/svg11.dtd"><svg t="1533127375422" class="icon" style="" viewBox="0 0 1088 1024" version="1.1" xmlns="http://www.w3.org/2000/svg" p-id="9974" data-spm-anchor-id="a313x.7781069.0.i4" xmlns:xlink="http://www.w3.org/1999/xlink" width="212.5" height="200"><defs><style type="text/css"></style></defs><path d="M86.4 598.4l342.4 342.4c-36.8 19.2-83.2 12.8-113.6-17.6l-280-280c-36.8-36.8-36.8-99.2 0-136l376-376c36.8-36.8 110.4-67.2 163.2-67.2l-489.6 489.6c-11.2 12.8-11.2 32 1.6 44.8z" fill="#ffffff" p-id="9975" data-spm-anchor-id="a313x.7781069.0.i3" class="selected"></path><path d="M580.8 614.4l-49.6-22.4 22.4 49.6z" fill="#ffffff" p-id="9976" data-spm-anchor-id="a313x.7781069.0.i5" class="selected"></path><path d="M992 64h-224c-52.8 0-126.4 30.4-163.2 67.2l-376 376c-36.8 36.8-36.8 99.2 0 136l280 280c36.8 36.8 99.2 36.8 136 0l376-376c36.8-36.8 67.2-110.4 67.2-163.2v-224c0-52.8-43.2-96-96-96z m-462.4 672c-3.2 8-9.6 16-17.6 24-12.8 12.8-25.6 19.2-36.8 19.2-12.8 0-24-3.2-36.8-12.8l17.6-20.8c8 4.8 14.4 8 20.8 8s12.8-3.2 19.2-9.6c6.4-6.4 9.6-12.8 11.2-17.6s-1.6-11.2-4.8-14.4c-1.6-1.6-4.8-3.2-8-3.2s-6.4 0-11.2 3.2c-3.2 1.6-9.6 4.8-20.8 11.2-12.8 8-24 11.2-32 12.8-11.2 0-20.8-3.2-28.8-11.2-4.8-4.8-8-11.2-9.6-17.6s0-14.4 3.2-22.4c3.2-8 8-14.4 16-22.4 12.8-12.8 24-17.6 35.2-19.2 11.2 0 22.4 3.2 30.4 12.8l-19.2 20.8c-6.4-4.8-11.2-6.4-16-4.8-4.8 0-9.6 3.2-16 9.6-6.4 6.4-9.6 11.2-9.6 16 0 3.2 0 6.4 3.2 9.6 1.6 1.6 4.8 3.2 8 3.2 4.8 0 12.8-4.8 24-11.2 11.2-6.4 20.8-11.2 28.8-14.4 6.4-1.6 14.4-1.6 20.8 0s12.8 6.4 19.2 11.2c4.8 6.4 9.6 12.8 11.2 20.8s1.6 11.2-1.6 19.2z m104-97.6l-30.4-14.4-40 38.4 14.4 30.4-20.8 20.8-57.6-136 20.8-20.8 136 60.8-22.4 20.8z m33.6-30.4l-94.4-97.6 19.2-19.2 78.4 81.6 49.6-48 16 16-68.8 67.2z m83.2-81.6l-96-99.2 73.6-70.4 16 16-52.8 51.2 20.8 22.4 49.6-48 16 16-49.6 48 25.6 27.2 54.4-52.8 16 16-73.6 73.6z m113.6-142.4c-52.8 0-96-43.2-96-96s43.2-96 96-96 96 43.2 96 96-43.2 96-96 96z" fill="#ffffff" p-id="9977" data-spm-anchor-id="a313x.7781069.0.i2" class="selected"></path></svg>