<?xml version="1.0" standalone="no"?><!DOCTYPE svg PUBLIC "-//W3C//DTD SVG 1.1//EN" "http://www.w3.org/Graphics/SVG/1.1/DTD/svg11.dtd"><svg t="1534682198073" class="icon" style="" viewBox="0 0 1024 1024" version="1.1" xmlns="http://www.w3.org/2000/svg" p-id="1725" xmlns:xlink="http://www.w3.org/1999/xlink" width="200" height="200"><defs><style type="text/css"></style></defs><path d="M597.777895 948.537638H426.196562c-161.52609 0-289.136567 0-289.136566-83.43528v-17.17431c0-159.597021 129.685503-289.406588 289.136566-289.406588h171.581333c159.446198 0 289.162109 129.839974 289.162109 289.406588v17.17431c0 83.43528-133.99246 83.43528-289.162109 83.43528M426.167371 605.115899c-134.178555 0-243.298673 108.932806-243.298673 242.812149v17.17431c0 36.843274 134.909558 36.843274 243.298673 36.843274h171.576467c91.031142 0 243.327865 0 243.327865-36.843274v-17.17431c0-133.910967-109.148093-242.812149-243.327865-242.812149H426.167371m77.24669-68.676564c-126.260371 0-228.999722-102.912067-228.999722-229.363399 0-126.456197 102.739351-229.365832 228.999722-229.365831 126.265237 0 228.999722 102.882875 228.999722 229.365831 0 126.48174-102.734486 229.363399-228.999722 229.363399M320.255881 307.075936c0 100.764062 82.13626 182.766528 183.159397 182.766528s183.159396-82.003682 183.159396-182.766528c0-100.766494-82.165452-182.771393-183.159396-182.771393-101.023136 0.031624-183.159396 82.004899-183.159397 182.771393m0 0z" p-id="1726" fill="#2c2c2c"></path></svg>