<?xml version="1.0" standalone="no"?><!DOCTYPE svg PUBLIC "-//W3C//DTD SVG 1.1//EN" "http://www.w3.org/Graphics/SVG/1.1/DTD/svg11.dtd"><svg t="1532398837931" class="icon" style="" viewBox="0 0 1024 1024" version="1.1" xmlns="http://www.w3.org/2000/svg" p-id="4570" xmlns:xlink="http://www.w3.org/1999/xlink" width="200" height="200"><defs><style type="text/css"></style></defs><path d="M122.55651 1024H63.081797c-1.019128-107.144527 29.788006-203.285336 95.870679-287.344977 66.062209-84.035083 152.084387-137.281451 258.246622-162.177438-76.923698-28.504887-133.871056-77.146761-169.364541-149.048491-35.605017-72.127862-40.489873-147.202601-15.50282-223.499065C273.139832 77.325261 393.599532-5.491166 523.893408 0.282869c132.035398 5.850777 244.73806 97.987723 274.6069 225.09222 17.332338 73.751714 8.539801 144.53711-27.932906 211.084326-36.27011 66.184995-91.07075 111.304943-163.291726 137.789992 133.136383 32.680651 233.416121 106.756726 299.329964 225.456486 38.517103 69.361073 55.507686 144.380557 54.274704 224.167228H901.728969c0.234318-125.880724-46.128843-230.672866-143.089253-311.307787-74.930464-62.314151-162.372873-91.34702-259.586018-87.986763-106.382227 3.678479-197.049828 44.676893-270.193749 122.082529-73.172571 77.434286-107.330753 170.55864-106.303439 277.3389z m389.831802-493.972153c129.52953-0.121763 234.986765-105.464398 235.141272-234.879327 0.151437-129.572505-105.689507-235.378659-235.464609-235.386845-129.785335-0.009209-235.625255 105.748854-235.515771 235.333637 0.106415 129.691199 105.878803 235.056344 235.839108 234.932535z" p-id="4571"></path></svg>