<?xml version="1.0" standalone="no"?><!DOCTYPE svg PUBLIC "-//W3C//DTD SVG 1.1//EN" "http://www.w3.org/Graphics/SVG/1.1/DTD/svg11.dtd"><svg t="1534682925282" class="icon" style="" viewBox="0 0 1024 1024" version="1.1" xmlns="http://www.w3.org/2000/svg" p-id="13972" xmlns:xlink="http://www.w3.org/1999/xlink" width="200" height="200"><defs><style type="text/css"></style></defs><path d="M486.4 563.2c-155.29 0-281.6-126.31-281.6-281.6S331.11 0 486.4 0 768 126.31 768 281.6 641.69 563.2 486.4 563.2z m0-512C359.373 51.2 256 154.573 256 281.6S359.373 512 486.4 512s230.4-103.373 230.4-230.4S613.427 51.2 486.4 51.2zM896 1024H76.8C34.458 1024 0 989.542 0 947.2c0-3.482 0.717-86.272 62.72-168.96 36.096-48.128 85.504-86.374 146.893-113.613C284.57 631.296 377.703 614.4 486.4 614.4s201.83 16.896 276.787 50.227c61.389 27.29 110.797 65.485 146.893 113.613 62.003 82.688 62.72 165.478 62.72 168.96 0 42.342-34.458 76.8-76.8 76.8zM486.4 665.6c-178.534 0-310.272 48.794-380.98 141.107C52.43 875.878 51.252 946.586 51.2 947.302c0 14.03 11.469 25.498 25.6 25.498H896c14.131 0 25.6-11.469 25.6-25.6 0-0.614-1.178-71.322-54.22-140.493C796.62 714.394 664.882 665.6 486.4 665.6z" p-id="13973" fill="#00D9D9"></path></svg>