<?xml version="1.0" standalone="no"?><!DOCTYPE svg PUBLIC "-//W3C//DTD SVG 1.1//EN" "http://www.w3.org/Graphics/SVG/1.1/DTD/svg11.dtd"><svg t="1534683907242" class="icon" style="" viewBox="0 0 1024 1024" version="1.1" xmlns="http://www.w3.org/2000/svg" p-id="27928" xmlns:xlink="http://www.w3.org/1999/xlink" width="200" height="200"><defs><style type="text/css"></style></defs><path d="M820.327081 50.200258H208.390764c-84.503978 0-152.999432 68.486423-152.999432 152.981369v611.970635c0 84.458822 68.495454 152.98137 152.999432 152.98137h611.936317c84.500365 0 153.006657-68.524354 153.006657-152.98137V203.181627c0-84.49314-68.506292-152.98137-153.006657-152.981369m102.015275 586.454172H616.359748c-56.240255 0-101.993601-57.210195-101.993601-127.504644 0-70.296255 45.753345-127.490195 101.993601-127.490195h305.982608v254.994839zM616.359748 330.671822c-84.496753 0-152.983176 79.889087-152.983176 178.477964 0 98.569009 68.486423 178.477964 152.983176 178.477963h305.982608v127.526319c0 56.240255-45.77502 101.973732-102.015275 101.973733H208.390764c-56.251093 0-101.993601-45.733477-101.9936-101.973733V203.181627c0-56.240255 45.742508-101.991794 101.9936-101.991794h611.936317c56.242062 0 102.015275 45.751539 102.015275 101.991794v127.490195H616.359748z" p-id="27929" fill="#00D9D9"></path><path d="M705.590602 458.178272H680.095814c-21.118318 0-38.239472 17.121154-38.239472 38.223217v25.51285c0 21.103868 17.121154 38.244891 38.239472 38.244891h25.494788c21.138186 0 38.259341-17.141023 38.259341-38.244891v-25.51285c-0.001806-21.102062-17.121154-38.223216-38.259341-38.223217" p-id="27930" fill="#00D9D9"></path></svg>