<?xml version="1.0" standalone="no"?><!DOCTYPE svg PUBLIC "-//W3C//DTD SVG 1.1//EN" "http://www.w3.org/Graphics/SVG/1.1/DTD/svg11.dtd"><svg t="1532355910827" class="icon" style="" viewBox="0 0 1236 1024" version="1.1" xmlns="http://www.w3.org/2000/svg" p-id="10441" xmlns:xlink="http://www.w3.org/1999/xlink" width="241.40625" height="200"><defs><style type="text/css"></style></defs><path d="M1151.493823 98.54015c115.149382 119.414174 76.766255 324.124187 81.031046 324.124187-4.264792 25.588752-25.588752 42.647919-46.912711 42.647919h-17.059168c-25.588752 0-38.383127-21.32396-34.118335-42.647919 0 0 29.853544-132.20855-38.383128-234.563556-72.501463-102.355006-234.563556-85.295839-234.563556-85.295839-25.588752 0-38.383127-17.059168-38.383128-34.118335V43.097855c0-21.32396 21.32396-42.647919 38.383128-42.647919 0 0 174.856469-12.794376 290.005852 98.090214z m-140.738134 311.329811c-17.059168 0-21.32396-8.529584-21.32396-25.588751 0 0 29.853544-68.236671-4.264792-106.619799s-106.619798-29.853544-106.619798-29.853543c-17.059168 0-25.588752-8.529584-25.588752-25.588752v-12.794376c0-17.059168 8.529584-29.853544 25.588752-29.853543 0 0 85.295839-25.588752 149.267717 34.118335 63.971879 63.971879 38.383127 170.591677 38.383128 170.591678 0 17.059168-17.059168 25.588752-29.853544 25.588751h-25.588751z" fill="#E69017" p-id="10442"></path><path d="M464.862321 516.48976c-115.149382 21.32396-196.180429 123.678966-174.856469 221.76918s132.20855 157.797302 247.357932 136.473342 196.180429-123.678966 174.856469-221.76918-132.20855-157.797302-247.357932-136.473342z m-12.794376 260.152308c-34.118335 17.059168-76.766255 8.529584-85.295839-21.32396-17.059168-25.588752 4.264792-59.707087 38.383128-81.031047 34.118335-17.059168 76.766255-8.529584 85.295839 21.32396 17.059168 29.853544 0 68.236671-38.383128 81.031047z m81.031047-81.031047c-21.32396 0-34.118335-17.059168-34.118336-34.118335s17.059168-34.118335 34.118336-34.118336 34.118335 17.059168 34.118335 34.118336-12.794376 34.118335-34.118335 34.118335z" fill="" p-id="10443"></path><path d="M895.606306 478.106632c0-8.529584 106.619798-106.619798 0-170.591677s-290.005852 29.853544-285.741059 21.32396c81.031047-145.002926-34.118335-187.650845-93.825423-187.650846-140.738134 0-511.775032 315.594603-511.775032 520.304617C0 861.937906 247.357932 1024 554.422952 1024s550.15816-162.062094 550.158159-362.507314c0-174.856469-208.974805-174.856469-208.974805-183.386054z m-328.388979 435.008778c-196.180429 25.588752-366.772106-59.707087-383.831274-187.650845s127.943758-255.887516 324.124187-285.74106c196.180429-25.588752 366.772106 55.442295 388.096066 183.386053 8.529584 136.473342-132.20855 264.4171-328.388979 290.005852z" fill="#D6282A" p-id="10444"></path></svg>