<?xml version="1.0" standalone="no"?><!DOCTYPE svg PUBLIC "-//W3C//DTD SVG 1.1//EN" "http://www.w3.org/Graphics/SVG/1.1/DTD/svg11.dtd"><svg t="1533127546643" class="icon" style="" viewBox="0 0 1024 1024" version="1.1" xmlns="http://www.w3.org/2000/svg" p-id="11475" xmlns:xlink="http://www.w3.org/1999/xlink" width="200" height="200"><defs><style type="text/css"></style></defs><path d="M926.992107 238.720963c-48.39215-50.681286-112.677269-78.591963-181.01468-78.591963l-1.901303 0c-33.761941 0.251733-68.606541 7.749498-100.763938 21.682835-25.050536 10.854209-48.042179 25.426089-67.506487 42.690288-12.845563-24.050766-28.731368-46.25037-47.39545-66.202795-27.114544-29.004591-58.797128-51.816133-94.15952-67.797106-36.934191-16.712637-76.215846-25.186635-116.755144-25.186635-40.540322 0-79.821977 8.473999-116.754121 25.186635-35.329646 15.984043-67.007113 38.792515-94.160543 67.797106-55.032384 58.861596-85.339644 136.885624-85.339644 219.695654 0 82.778308 30.30726 160.793126 85.346807 219.683375 27.160593 29.015847 58.840106 51.826366 94.157473 67.793012 20.609387 9.318226 42.038442 16.095583 63.98529 20.255323-2.801812 7.042393-2.566452 15.089673 1.02433 22.100344 4.756327 9.231245 14.718213 15.195074 25.377994 15.195074l1.976004-0.020466c-1.130753 21.310352 3.472078 40.791032 7.957229 59.774385 8.456602 35.715433 17.201777 72.646554-14.013155 131.562385-3.504824 6.674003-4.065596 14.241352-1.576915 21.313422 2.536776 7.194866 8.090259 13.081946 15.243169 16.161075 3.667529 1.594311 7.565303 2.4017 11.584849 2.4017 10.663874 0 20.322861-5.695722 25.224498-14.900362 40.568974-76.642564 28.482705-127.747499 18.773576-168.80459-4.276397-18.11559-7.830339-33.171494-6.282077-48.131207l15.505136-0.177032c10.874675-0.079818 20.86112-6.302543 25.451672-15.874549 3.877307-8.112772 3.328815-17.492396-1.081635-25.049512 15.114233-4.00829 29.952172-9.293667 44.349067-15.805988 35.33681-15.96767 67.017346-38.779212 94.163613-67.797106 3.489474-3.730974 6.89606-7.557116 10.203386-11.461029 16.951067 25.205055 37.924751 46.809095 62.560848 64.412009 28.706809 20.514219 61.530378 34.591843 96.263437 41.438785-3.567245 6.828522-3.858888 15.042601-0.431835 22.230304 3.276626 6.900154 9.549493 11.933797 16.872273 13.892405-1.921769 21.008476 1.481747 38.665625 4.567016 54.66604 4.560876 23.729447 8.868995 46.142923-4.25593 82.038458-2.375094 6.53995-1.958608 13.539364 1.171686 19.721157 3.137457 6.266727 8.884344 11.050684 15.780405 13.132088l0.191358 0.056282c2.49789 0.718361 5.03569 1.083681 7.54279 1.083681 11.088546 0 21.014616-6.814196 24.691355-16.929578 17.85567-48.834218 11.483542-81.911568 6.359848-108.510366l-0.020466-0.101307c-2.902096-15.058974-5.484921-28.458145-3.464915-43.921325l0.6191 0.004093c9.989515 0 19.249413-5.653767 23.577998-14.384615 3.51608-7.059789 3.40454-15.186887 0.053212-22.051225 53.015448-9.540284 101.780081-36.404118 139.705855-77.463256 46.964638-50.886971 72.488964-117.999484 71.872934-188.983165C1001.612619 355.602997 974.879768 288.899806 926.992107 238.720963zM298.307571 692.248224l29.439496-30.429033 30.210046 29.769001L298.307571 692.248224zM750.867808 698.602955l0.002047-0.010233-17.683754-0.118704 10.867512-10.437723 10.711969 10.596336L750.867808 698.602955zM907.838885 594.703607c-39.718607 43.00035-92.860944 68.281129-149.636019 71.184249l-13.649881 0.698918-14.109346-1.01512c-40.417525-2.90926-78.94705-16.71366-111.424742-39.923268-26.993794-19.286252-48.998971-44.079938-65.403592-73.691349l-11.662621-21.051455-14.170744 19.451004c-6.6607 9.144264-13.993712 18.008142-21.794375 26.346041-24.365944 26.047236-52.757574 46.50108-84.391039 60.796668-20.582781 9.31004-42.149982 15.803941-64.10297 19.304671l-29.984918 4.779863 0.192382 0.190335-32.087812-2.75474c-28.359908-2.434445-56.022944-9.674337-82.22163-21.520129-31.615045-14.293541-60.008722-34.749432-84.384899-60.790528C79.309812 523.533684 51.940464 452.963419 51.940464 377.996007c0-74.998111 27.369348-145.57554 77.05905-198.722994 24.37106-26.033933 52.766784-46.490847 84.398202-60.801784 32.929993-14.901385 67.953671-22.456455 104.098893-22.456455 36.144198 0 71.167876 7.55507 104.105033 22.459524 31.659047 14.306844 60.049654 34.760688 84.386946 60.793598 21.289885 22.760376 38.573527 48.765657 51.368948 77.292364l9.494235 21.167089 15.769149-17.015535c39.520085-42.644239 101.443413-69.419046 161.624051-69.883627l1.731434 0c59.867506 0 116.267027 24.537859 158.807912 69.090565 42.482557 44.514843 66.199725 103.791901 66.785056 166.901241C972.117864 489.957984 949.482331 549.581943 907.838885 594.703607z" p-id="11476" fill="#ffffff"></path><path d="M793.530466 608.004541l2.915399 5.857405c41.300638-10.338463 73.294306-36.211736 87.778182-70.989821l-5.193279-3.900843L793.530466 608.004541z" p-id="11477" fill="#ffffff"></path><path d="M265.753131 204.001207c-0.983397-0.036839-2.00568 0.019443-2.968611 0.209778-34.580586 6.588045-67.48602 25.989931-92.626607 54.640458-22.282492 25.351388-36.365232 55.861262-37.660738 81.550341-0.162706 2.814092 0.839111 5.555529 2.787486 7.705496 2.13257 2.368954 5.248537 3.807722 8.546653 3.972475l0.055259 0c6.540973 0.298805 12.096503-4.400217 12.407588-10.468422 2.038426-39.844473 45.418422-103.111402 111.427812-115.663276 3.224438-0.6191 6.04774-2.487657 7.759731-5.111414 1.567705-2.449795 2.060939-5.338588 1.367137-8.142447C275.682271 207.828372 271.109116 204.246801 265.753131 204.001207z" p-id="11478" fill="#ffffff"></path><path d="M131.332652 373.020692c-9.019421 0-16.343223 7.30743-16.343223 16.344247 0 9.026584 7.323802 16.343223 16.343223 16.343223 9.035794 0 16.3422-7.315616 16.3422-16.343223C147.674852 380.328122 140.367423 373.020692 131.332652 373.020692z" p-id="11479" fill="#ffffff"></path></svg>