<?xml version="1.0" standalone="no"?><!DOCTYPE svg PUBLIC "-//W3C//DTD SVG 1.1//EN" "http://www.w3.org/Graphics/SVG/1.1/DTD/svg11.dtd"><svg t="1533211162281" class="icon" style="" viewBox="0 0 1024 1024" version="1.1" xmlns="http://www.w3.org/2000/svg" p-id="1676" data-spm-anchor-id="a313x.7781069.0.i1" xmlns:xlink="http://www.w3.org/1999/xlink" width="200" height="200"><defs><style type="text/css"></style></defs><path d="M690.4 479.8l-139 0L551.4 340.6c0-21.9-17.8-39.7-39.7-39.7-21.9 0-39.7 17.7-39.7 39.7l0 139.2-139 0c-21.9 0-39.8 17.9-39.8 39.8 0 21.9 17.7 39.8 39.8 39.8l139 0 0 139.2c0 21.9 17.8 39.8 39.7 39.8 21.9 0 39.7-17.8 39.7-39.8L551.4 559.4l139 0c21.8 0 39.8-17.8 39.8-39.8C730.1 497.7 712.4 479.8 690.4 479.8L690.4 479.8z" p-id="1677" data-spm-anchor-id="a313x.7781069.0.i0" class="selected" fill="#2c2c2c"></path><path d="M511.3 65.4c-250.2 0-454 203.6-454 454s203.7 454 454 454c250.3 0 454-203.6 454-454C965.3 269 761.7 65.4 511.3 65.4zM511.3 894.8C304.9 894.8 137 726.4 137 519.4c0-207.1 167.9-375.5 374.3-375.5s374.3 168.4 374.3 375.5C885.7 726.4 717.8 894.8 511.3 894.8z" p-id="1678" data-spm-anchor-id="a313x.7781069.0.i2" class="selected" fill="#2c2c2c"></path></svg>