<?xml version="1.0" standalone="no"?><!DOCTYPE svg PUBLIC "-//W3C//DTD SVG 1.1//EN" "http://www.w3.org/Graphics/SVG/1.1/DTD/svg11.dtd"><svg t="1532744870980" class="icon" style="" viewBox="0 0 1025 1024" version="1.1" xmlns="http://www.w3.org/2000/svg" p-id="1882" xmlns:xlink="http://www.w3.org/1999/xlink" width="200.1953125" height="200"><defs><style type="text/css"></style></defs><path d="M304.04608 608.01024c0 114.87232 93.12256 207.99488 207.99488 207.99488s207.99488-93.12256 207.99488-207.99488-93.12256-207.99488-207.99488-207.99488-207.99488 93.12256-207.99488 207.99488zM960.04096 256l-224.01024 0c-15.99488-64-32.01024-128-96.01024-128l-256 0c-64 0-79.99488 64-96.01024 128l-224.01024 0c-35.20512 0-64 28.79488-64 64l0 576c0 35.20512 28.79488 64 64 64l896 0c35.20512 0 64-28.79488 64-64l0-576c0-35.20512-28.79488-64-64-64zM512.04096 892.0064c-156.85632 0-283.99616-127.13984-283.99616-283.99616s127.13984-283.99616 283.99616-283.99616c156.85632 0 283.99616 127.13984 283.99616 283.99616s-127.13984 283.99616-283.99616 283.99616zM960.04096 448l-128 0 0-64 128 0 0 64z" p-id="1883" fill="#ffffff"></path></svg>