<?xml version="1.0" standalone="no"?><!DOCTYPE svg PUBLIC "-//W3C//DTD SVG 1.1//EN" "http://www.w3.org/Graphics/SVG/1.1/DTD/svg11.dtd"><svg t="1532394547968" class="icon" style="" viewBox="0 0 1038 1024" version="1.1" xmlns="http://www.w3.org/2000/svg" p-id="26376" xmlns:xlink="http://www.w3.org/1999/xlink" width="202.734375" height="200"><defs><style type="text/css"></style></defs><path d="M890.296859 823.00322 662.356426 823.00322 513.744737 971.614909 365.134071 823.00322 131.354654 823.00322c-72.545246 0-131.355677-58.809407-131.355677-131.355677l0-507.907799c0-72.545246 58.809407-131.355677 131.355677-131.355677l758.942205 0c72.545246 0 131.355677 58.809407 131.355677 131.355677l0 507.907799C1021.652536 764.193813 962.843128 823.00322 890.296859 823.00322zM221.844597 338.448292c-54.812373 0-99.246375 44.434002-99.246375 99.246375s44.434002 99.246375 99.246375 99.246375 99.246375-44.434002 99.246375-99.246375S276.655947 338.448292 221.844597 338.448292zM510.826268 338.448292c-54.812373 0-99.246375 44.434002-99.246375 99.246375s44.434002 99.246375 99.246375 99.246375c54.812373 0 99.246375-44.434002 99.246375-99.246375S565.637618 338.448292 510.826268 338.448292zM799.807938 338.448292c-54.812373 0-99.246375 44.434002-99.246375 99.246375s44.434002 99.246375 99.246375 99.246375 99.246375-44.434002 99.246375-99.246375S854.620311 338.448292 799.807938 338.448292z" p-id="26377" fill="#00d5f7"></path></svg>