<?xml version="1.0" standalone="no"?><!DOCTYPE svg PUBLIC "-//W3C//DTD SVG 1.1//EN" "http://www.w3.org/Graphics/SVG/1.1/DTD/svg11.dtd"><svg t="1532328270191" class="icon" style="" viewBox="0 0 1024 1024" version="1.1" xmlns="http://www.w3.org/2000/svg" p-id="3253" xmlns:xlink="http://www.w3.org/1999/xlink" width="200" height="200"><defs><style type="text/css"></style></defs><path d="M740.33664 934.4c-11.1104 0-21.93408-2.92352-33.1008-8.9344l-177.39776-93.08672c-4.58752-2.74944-10.59328-4.24448-16.9728-4.24448-5.86752 0-12.76416 1.69984-17.02912 3.39456l-176.47104 93.94176c-10.42944 6.08768-21.23776 8.9344-33.9712 8.9344-21.14048 0-41.65632-9.44128-56.28416-25.89696-13.88544-15.62112-19.75808-37.13024-16.11264-59.01824l34.2528-196.74112c1.65376-11.5968-2.47808-23.66976-11.06432-32.256L93.9264 482.61632c-20.48-19.58912-27.6736-48.36352-18.7648-75.08992 8.93952-26.81856 30.98624-45.52192 58.97216-50.03776l196.75136-28.98432c11.9552-1.70496 22.95808-9.36448 28.032-19.5072l87.82336-179.15904c12.41088-24.82176 37.41184-40.23296 65.2544-40.23296 27.84256 0 52.84352 15.41632 65.2544 40.22784l87.8336 179.1744c5.82144 10.81344 15.77984 17.75104 28.01664 19.49696l196.736 28.98432c27.46368 4.4288 50.05824 23.26016 58.9824 49.14688 8.82688 26.47552 1.97632 55.2448-17.8688 75.08992l-141.40928 138.77248c-8.94976 8.13568-12.86144 19.59424-11.04896 32.28672l33.36704 195.81952c3.65056 21.888-2.2272 43.40224-16.11264 59.02848-13.21984 16.73728-33.95072 26.76736-55.40864 26.76736z" p-id="3254" fill="#00d5f7"></path></svg>