<?xml version="1.0" standalone="no"?><!DOCTYPE svg PUBLIC "-//W3C//DTD SVG 1.1//EN" "http://www.w3.org/Graphics/SVG/1.1/DTD/svg11.dtd"><svg t="1532759865089" class="icon" style="" viewBox="0 0 1024 1024" version="1.1" xmlns="http://www.w3.org/2000/svg" p-id="1289" xmlns:xlink="http://www.w3.org/1999/xlink" width="200" height="200"><defs><style type="text/css"></style></defs><path d="M821.333333 423.765333a32 32 0 0 1 32 32v365.568a32 32 0 0 1-32 32H202.666667a32 32 0 0 1-32-32V202.666667A32 32 0 0 1 202.666667 170.666667h365.525333a32 32 0 0 1 0 64H234.666667v554.666666h554.666666v-333.568a32 32 0 0 1 32-32z m-416.341333 195.2a32 32 0 0 1 0-45.226666L798.72 180.053333a31.957333 31.957333 0 1 1 45.226667 45.226667l-393.685334 393.685333a32 32 0 0 1-45.226666 0z" fill="#00d5f7" p-id="1290"></path></svg>