<?xml version="1.0" standalone="no"?><!DOCTYPE svg PUBLIC "-//W3C//DTD SVG 1.1//EN" "http://www.w3.org/Graphics/SVG/1.1/DTD/svg11.dtd"><svg t="1532395466618" class="icon" style="" viewBox="0 0 1024 1024" version="1.1" xmlns="http://www.w3.org/2000/svg" p-id="28331" xmlns:xlink="http://www.w3.org/1999/xlink" width="200" height="200"><defs><style type="text/css"></style></defs><path d="M521 384q-58-4-99.5 37.5T384 521l-98 217 217-98q58 4 99.5-37.5T640 503l98-217z m30.5 167.5Q535 568 512 568t-39.5-16.5T456 512t16.5-39.5T512 456t39.5 16.5T568 512t-16.5 39.5zM512 0Q373 0 255 68.5T68.5 255 0 512t68.5 257T255 955.5t257 68.5 257-68.5T955.5 769t68.5-257-68.5-257T769 68.5 512 0z m0 952q-182 0-311-129T72 512t129-311T512 72t311 129 129 311-129 311-311 129z" fill="#00d5f7" p-id="28332" data-spm-anchor-id="a313x.7781069.0.i32" class="selected"></path></svg>