<?xml version="1.0" standalone="no"?><!DOCTYPE svg PUBLIC "-//W3C//DTD SVG 1.1//EN" "http://www.w3.org/Graphics/SVG/1.1/DTD/svg11.dtd"><svg t="1533127275211" class="icon" style="" viewBox="0 0 1025 1024" version="1.1" xmlns="http://www.w3.org/2000/svg" p-id="9229" data-spm-anchor-id="a313x.7781069.0.i0" xmlns:xlink="http://www.w3.org/1999/xlink" width="200.1953125" height="200"><defs><style type="text/css"></style></defs><path d="M902.02496 581.984l-37.248-40.32c165.312-152.896 87.52-314.88 84.16-321.696-42.08-76.512-101.344-125.216-170.912-139.968-68.608-14.592-135.392 6.432-171.328 33.728-89.408 67.936-307.136 307.232-309.312 309.632l-40.64-36.928c9.056-9.984 223.328-245.472 316.736-316.416 42.496-32.256 124.576-63.04 215.936-43.68 59.68 12.672 144.256 52.128 208.032 168.096C998.98496 197.28 1098.50496 400.192 902.02496 581.984" p-id="9230" fill="#ffffff"></path><path d="M148.87296 592.48c-231.552-151.904-124.16-390.56-123.04-392.96 81.472-148.672 212.032-165.248 250.112-166.784 139.968-6.112 240.672 109.216 244.864 114.112l-41.536 35.872c-0.832-0.992-88.352-100.032-201.056-95.168-30.848 1.28-136.672 14.912-203.456 136.704-2.848 6.336-87.2 196.8 104.192 322.336L148.87296 592.48 148.87296 592.48z" p-id="9231" fill="#ffffff"></path><path d="M568.90496 1024c-27.264 0-62.272-11.456-99.552-53.12l40.864-36.608c18.72 20.896 47.008 43.328 75.328 31.488 22.304-9.312 20.928-57.76 19.328-70.24l-4.032-31.904 32.128 0.96c25.216 0.256 43.232-4.544 53.408-15.968 15.008-16.8 11.296-43.936 11.232-44.192l-5.056-34.912 35.072 3.456c24.608 2.592 42.56-1.728 53.184-12.704 16.352-16.896 15.968-48.896 14.464-59.808l-8.8-63.328 51.936 37.152c6.336 4.48 27.072-1.952 42.688-20.064 9.536-11.072 22.624-32.64 3.232-52.64-47.008-48.416-172.64-173.184-221.12-221.28-32.064 31.616-91.04 86.656-125.824 100-145.28 55.808-235.968-31.712-263.616-85.856l48.8-25.088c2.368 4.576 60.352 111.552 195.136 59.712 24.512-9.408 88.192-68.032 125.632-106.656l19.296-19.968 19.744 19.52c1.824 1.824 182.496 180.768 241.344 241.376 34.24 35.264 33.888 86.176-0.992 126.656-18.528 21.536-45.888 38.08-72.8 40.352-2.336 21.184-9.632 47.264-29.248 67.744-17.216 18.016-40.224 28.064-68.576 30.112-2.08 17.152-8.288 38.336-24.224 56.48-16.256 18.464-38.752 29.664-67.168 33.44-1.344 36.768-13.824 81.568-54.016 98.336C597.22496 1020.352 584.29696 1024 568.90496 1024L568.90496 1024z" p-id="9232" fill="#ffffff"></path><path d="M173.32096 752.384c-24.704 0-49.696-11.232-68.544-30.848-15.84-16.512-25.728-37.28-27.68-58.496-2.208-23.232 5.44-45.056 20.928-59.968l133.44-128.128c29.76-28.576 84.768-23.104 118.08 11.616 15.84 16.48 25.696 37.248 27.68 58.464 2.176 23.2-5.44 45.056-20.928 59.968l-133.44 128.128C209.96096 745.536 192.32896 752.384 173.32096 752.384M281.00096 510.624c-3.36 0-8.128 0.704-11.52 3.968l-133.408 128.096c-4.608 4.416-4.672 11.456-4.352 15.232 0.832 8.768 5.44 18.112 12.672 25.632 12.704 13.152 32.352 17.824 40.544 9.984l133.408-128.096c4.576-4.416 4.672-11.456 4.32-15.232-0.832-8.768-5.44-18.08-12.672-25.6C301.54496 515.872 290.72896 510.624 281.00096 510.624L281.00096 510.624z" p-id="9233" fill="#ffffff"></path><path d="M260.90496 840.672c-24.704 0-49.696-11.232-68.512-30.816-34.432-35.808-37.472-88.96-6.816-118.464l133.44-128.128c29.824-28.544 84.8-23.104 118.08 11.616 15.872 16.512 25.728 37.28 27.712 58.464 2.176 23.232-5.44 45.056-20.96 59.968L310.47296 821.44C297.54496 833.856 279.94496 840.672 260.90496 840.672M368.61696 598.912c-3.36 0-8.128 0.704-11.552 3.968l-133.408 128.096C216.07296 738.272 217.60896 756.896 231.97696 771.84c8.416 8.736 19.232 13.952 28.928 13.952 3.36 0 8.128-0.672 11.552-3.968l133.408-128.096c4.608-4.416 4.672-11.424 4.352-15.232-0.832-8.768-5.44-18.08-12.672-25.6C389.16096 604.16 378.31296 598.912 368.61696 598.912" p-id="9234" fill="#ffffff"></path><path d="M348.52096 929.024c-24.704 0-49.696-11.232-68.544-30.848-34.4-35.776-37.472-88.928-6.784-118.432l133.44-128.128c29.824-28.512 84.768-23.04 118.048 11.552 34.432 35.872 37.472 88.992 6.784 118.496l-133.376 128.128C385.12896 922.176 367.49696 929.024 348.52096 929.024L348.52096 929.024zM456.20096 687.264c-4.896 0-8.8 1.344-11.552 3.968l-133.408 128.096c-7.584 7.296-6.016 25.856 8.352 40.8 8.416 8.768 19.264 14.016 28.928 14.016 3.392 0 8.16-0.704 11.584-3.968l133.344-128.096c7.616-7.296 6.048-25.888-8.32-40.864C476.71296 692.448 465.92896 687.264 456.20096 687.264" p-id="9235" fill="#ffffff"></path><path d="M436.10496 1017.344c-24.672 0-49.696-11.232-68.544-30.816C351.68896 969.984 341.86496 949.216 339.84896 928c-2.176-23.2 5.44-45.056 20.96-59.968l133.376-128.128c29.856-28.576 84.8-23.072 118.112 11.584 15.872 16.544 25.728 37.312 27.68 58.496 2.208 23.232-5.44 45.088-20.96 60l-133.376 128.096C472.71296 1010.496 455.14496 1017.344 436.10496 1017.344L436.10496 1017.344zM543.78496 775.552c-4.928 0-8.8 1.344-11.584 3.968l-133.344 128.096c-4.64 4.416-4.704 11.424-4.384 15.232 0.832 8.736 5.472 18.08 12.672 25.6 8.448 8.768 19.296 13.984 28.96 13.984 3.392 0 8.16-0.672 11.552-3.968l133.376-128.096c4.64-4.416 4.704-11.424 4.352-15.232-0.8-8.768-5.44-18.112-12.64-25.632C564.32896 780.8 553.51296 775.552 543.78496 775.552" p-id="9236" fill="#ffffff"></path><path d="M705.288224 810.137242l-153.820576-153.885846 38.816624-38.80016 153.820576 153.885846-38.816624 38.80016Z" p-id="9237" fill="#ffffff"></path><path d="M796.727248 709.156458l-145.94544-145.94544 38.805648-38.805648 145.94544 145.94544-38.805648 38.805648Z" p-id="9238" fill="#ffffff"></path></svg>