<?xml version="1.0" standalone="no"?><!DOCTYPE svg PUBLIC "-//W3C//DTD SVG 1.1//EN" "http://www.w3.org/Graphics/SVG/1.1/DTD/svg11.dtd"><svg t="1533642404900" class="icon" style="" viewBox="0 0 1024 1024" version="1.1" xmlns="http://www.w3.org/2000/svg" p-id="3917" xmlns:xlink="http://www.w3.org/1999/xlink" width="200" height="200"><defs><style type="text/css"></style></defs><path d="M930.3 463.2c-15 0-26.3 11.3-26.3 26.3s-7.5 26.3-18.8 33.8c-3.8-41.3-11.3-78.9-30.1-116.5-18.8-41.3-48.8-78.9-86.4-108.9-41.3-33.8-86.4-60.1-139-78.9-11.3-63.9-67.6-116.5-135.2-116.5S366.8 151.4 359.3 219c-15 3.8-30.1 11.3-48.8 18.8l-15-15C273 200.3 246.7 189 216.6 189s-60.1 11.3-78.9 33.8c-3.8 3.8-7.5 11.3-7.5 18.8s3.8 15 7.5 18.8l60.1 60.1c-26.3 26.3-45.1 56.4-60.1 86.4h-37.6c-22.5 0-37.6 18.8-37.6 37.6v187.8c0 22.5 18.8 37.6 37.6 37.6h37.6c18.8 37.6 45.1 75.1 78.9 105.2v3.8c-26.3 45.1-11.3 105.2 33.8 131.5 15 7.5 30.1 11.3 48.8 11.3 33.8 0 67.6-18.8 82.7-48.8l3.8-7.5c37.6 7.5 71.4 15 112.7 15s75.1-3.8 112.7-15l3.8 7.5c18.8 30.1 48.8 48.8 82.7 48.8 15 0 33.8-3.8 48.8-11.3 22.5-11.3 37.6-33.8 45.1-60.1 7.5-26.3 3.8-52.6-11.3-71.4V775c30.1-30.1 56.4-60.1 75.1-97.7 18.8-33.8 26.3-67.6 33.8-101.4 41.3-7.5 71.4-45.1 71.4-90.2-3.9-11.2-15.1-22.5-30.2-22.5zM494.5 155.1c48.8 0 86.4 37.6 86.4 86.4 0 11.3-3.8 22.5-7.5 33.8-26.3-7.5-52.6-11.3-78.9-11.3-26.3 0-52.6 3.8-78.9 11.3-3.8-11.3-7.5-22.5-7.5-33.8-3.7-45 37.6-86.4 86.4-86.4z m233 597.4c-11.3 7.5-11.3 22.5-7.5 33.8l11.3 22.5c7.5 11.3 7.5 22.5 3.8 33.8-3.8 11.3-11.3 22.5-22.5 26.3-7.5 3.8-15 7.5-22.5 7.5-15 0-30.1-7.5-37.6-22.5l-15-26.3c-3.8-7.5-15-11.3-22.5-11.3h-7.5c-37.6 11.3-75.1 18.8-116.5 18.8-41.3 0-78.9-7.5-116.5-18.8-11.3-3.8-22.5 0-30.1 11.3l-15 26.3c-7.5 15-22.5 22.5-37.6 22.5-7.5 0-15-3.8-22.5-7.5-22.5-11.3-30.1-41.3-15-60.1l11.3-22.5c7.5-11.3 3.8-26.3-7.5-33.8-41.3-30.1-71.4-71.4-86.4-112.7-3.8-11.3-15-15-22.5-15h-41.3V459.4h41.3c11.3 0 18.8-7.5 22.5-15 15-37.6 41.3-75.1 75.1-105.2 3.8-3.8 7.5-11.3 7.5-18.8s-3.8-15-7.5-18.8l-56.4-56.4c7.5-3.8 15-3.8 22.5-3.8 15 0 30.1 7.5 45.1 18.8l30.1 30.1c7.5 7.5 18.8 11.3 30.1 3.8 15-7.5 26.3-15 41.3-18.8 3.8 26.3 18.8 45.1 33.8 63.9 30.1-11.3 67.6-18.8 101.4-18.8 37.6 0 71.4 7.5 101.4 18.8 15-18.8 30.1-41.3 33.8-63.9C750 320.4 832.7 421.9 832.7 542.1c0 78.9-37.6 154-105.2 210.4z" fill="#fd2020" p-id="3918"></path><path d="M280.4 373c-22.5 0-41.3 18.8-41.3 41.3 0 22.5 18.8 41.3 41.3 41.3 22.5 0 41.3-18.8 41.3-41.3 0-22.5-18.8-41.3-41.3-41.3z" fill="#fd2020" p-id="3919"></path></svg>