<?xml version="1.0" standalone="no"?><!DOCTYPE svg PUBLIC "-//W3C//DTD SVG 1.1//EN" "http://www.w3.org/Graphics/SVG/1.1/DTD/svg11.dtd"><svg t="1533646270100" class="icon" style="" viewBox="0 0 1024 1024" version="1.1" xmlns="http://www.w3.org/2000/svg" p-id="11766" xmlns:xlink="http://www.w3.org/1999/xlink" width="200" height="200"><defs><style type="text/css"></style></defs><path d="M433.688 392.949c101.862 0 207.805-22.402 271.428-65.116v77.764h58.948V235.332c0-102.36-170.17-157.622-330.276-157.622-160.111 0-330.375 55.262-330.375 157.622v464.693c0 102.36 170.164 157.621 330.275 157.621v-58.844c-168.174 0-271.432-57.555-271.432-98.777V560.329c63.628 42.613 169.472 65.12 271.432 65.12V566.5c-168.174 0-271.432-57.55-271.432-98.771V327.933c63.628 42.614 169.571 65.016 271.432 65.016z m0-256.395c168.175 0 271.428 57.557 271.428 98.778 0 41.222-103.254 98.773-271.428 98.773-168.174 0-271.432-57.551-271.432-98.773 0-41.22 103.358-98.778 271.432-98.778z m264.06 288.656c-146.267 0-222.738 56.258-222.738 111.82v298.613c0 55.557 76.57 111.816 222.737 111.816 145.178 0 221.545-55.462 222.742-110.622h0.1V537.029c-0.1-55.56-76.57-111.819-222.842-111.819z m0 58.848c108.136 0 163.892 37.14 163.892 52.971s-55.756 52.972-163.893 52.972c-108.132 0-163.893-37.14-163.893-52.972s55.76-52.971 163.893-52.971z m0 404.557c-108.133 0-163.894-37.14-163.894-52.972v-71.296c37.34 20.316 92.207 33.857 163.893 33.857 71.69 0 126.459-13.541 163.893-33.857v71.296c0 15.83-55.756 52.972-163.893 52.972z m0-149.36c-108.133 0-163.894-37.14-163.894-52.971v-71.292c37.34 20.312 92.207 33.853 163.893 33.853 71.69 0 126.459-13.541 163.893-33.853v71.292c0 15.831-55.756 52.972-163.893 52.972z m0 0" p-id="11767" fill="#f75f57"></path></svg>