<?xml version="1.0" standalone="no"?><!DOCTYPE svg PUBLIC "-//W3C//DTD SVG 1.1//EN" "http://www.w3.org/Graphics/SVG/1.1/DTD/svg11.dtd"><svg t="1533563364644" class="icon" style="" viewBox="0 0 1024 1024" version="1.1" xmlns="http://www.w3.org/2000/svg" p-id="7494" xmlns:xlink="http://www.w3.org/1999/xlink" width="200" height="200"><defs><style type="text/css"></style></defs><path d="M840.661333 141.525333h-161.194666a29.824 29.824 0 0 1-29.738667-29.866666c0-16.512 13.312-29.866667 29.738667-29.866667h233.002666c16.426667 0 29.738667 13.354667 29.738667 29.866667v222.122666c0 16.512-13.312 29.866667-29.738667 29.866667a29.824 29.824 0 0 1-29.738666-29.866667V183.808l-217.173334 225.706667a328.192 328.192 0 0 1 70.656 204.032c0 181.504-146.474667 328.661333-327.210666 328.661333s-327.253333-147.157333-327.253334-328.661333c0-181.546667 146.517333-328.704 327.253334-328.704a325.12 325.12 0 0 1 215.466666 81.322666l216.192-224.64zM409.002667 882.474667c147.882667 0 267.733333-120.405333 267.733333-268.928s-119.893333-268.928-267.733333-268.928c-147.882667 0-267.733333 120.405333-267.733334 268.928 0 148.48 119.893333 268.928 267.733334 268.928z" fill="#3a8df7" p-id="7495"></path></svg>