<?xml version="1.0" standalone="no"?><!DOCTYPE svg PUBLIC "-//W3C//DTD SVG 1.1//EN" "http://www.w3.org/Graphics/SVG/1.1/DTD/svg11.dtd"><svg t="1532308632424" class="icon" style="" viewBox="0 0 1024 1024" version="1.1" xmlns="http://www.w3.org/2000/svg" p-id="5098" xmlns:xlink="http://www.w3.org/1999/xlink" width="200" height="200"><defs><style type="text/css"></style></defs><path d="M217.8931 590.831416c59.449997 0 107.695814-48.206932 107.695814-107.696838 0-59.527768-48.245817-107.721397-107.695814-107.721397-59.553351 0-107.760283 48.193629-107.760283 107.721397C110.132818 542.624485 158.33975 590.831416 217.8931 590.831416" p-id="5099" fill="#ffffff"></path><path d="M217.8931 623.459534c-84.23959 0-152.603607 68.301596-152.603607 152.579047l0 130.919748 305.077254 0L370.366747 776.038582C370.367771 691.76113 302.158273 623.459534 217.8931 623.459534" p-id="5100" fill="#ffffff"></path><path d="M806.182624 590.831416c59.461253 0 107.74698-48.206932 107.74698-107.696838 0-59.527768-48.285726-107.721397-107.74698-107.721397-59.4633 0-107.694791 48.193629-107.694791 107.721397C698.487833 542.624485 746.719324 590.831416 806.182624 590.831416" p-id="5101" fill="#ffffff"></path><path d="M806.182624 623.459534c-84.290755 0-152.602583 68.293409-152.602583 152.579047l0 130.919748 305.129442 0L958.709483 776.038582C958.709483 691.76113 890.43347 623.459534 806.182624 623.459534" p-id="5102" fill="#ffffff"></path><path d="M512.050654 327.46003c59.4633 0 107.694791-48.239677 107.694791-107.664092 0-59.501162-48.231491-107.74698-107.694791-107.74698-59.526745 0-107.708094 48.245817-107.708094 107.74698C404.34256 279.206026 452.549491 327.46003 512.050654 327.46003" p-id="5103" fill="#ffffff"></path><path d="M664.563186 512.686638c0-84.316338-68.221778-152.61691-152.512533-152.61691-84.238566 0-152.577001 68.299549-152.577001 152.61691L359.473653 643.63197l305.089533 0L664.563186 512.686638z" p-id="5104" fill="#ffffff"></path></svg>