<?xml version="1.0" standalone="no"?><!DOCTYPE svg PUBLIC "-//W3C//DTD SVG 1.1//EN" "http://www.w3.org/Graphics/SVG/1.1/DTD/svg11.dtd"><svg t="1532331390572" class="icon" style="" viewBox="0 0 1024 1024" version="1.1" xmlns="http://www.w3.org/2000/svg" p-id="8383" xmlns:xlink="http://www.w3.org/1999/xlink" width="200" height="200"><defs><style type="text/css"></style></defs><path d="M948.7 99.1c-14.7-22.1-38-34.8-63.8-34.8H139.7c-25.8 0-49.1 12.7-63.8 34.8-0.9 1.4-1.8 2.8-2.5 4.3-12.3 24.5-10.1 53.4 5.9 77.3 0.1 0.2 0.3 0.4 0.4 0.6l291 419.9v318.2c0 22.1 17.9 40 40 40s40-17.9 40-40V588.8c0-8.1-2.5-16.1-7.1-22.8L151.4 144.3h719.5L581 566.1c-4.6 6.7-7 14.6-7 22.7v247c0 22.1 17.9 40 40 40s40-17.9 40-40V601.2l291-423.4c0.1-0.2 0.2-0.3 0.3-0.5 17.1-25.7 18.4-55.7 3.4-78.2z" p-id="8384" fill="#00d5f7"></path></svg>