<?xml version="1.0" standalone="no"?><!DOCTYPE svg PUBLIC "-//W3C//DTD SVG 1.1//EN" "http://www.w3.org/Graphics/SVG/1.1/DTD/svg11.dtd"><svg t="1533563569096" class="icon" style="" viewBox="0 0 1024 1024" version="1.1" xmlns="http://www.w3.org/2000/svg" p-id="8282" xmlns:xlink="http://www.w3.org/1999/xlink" width="200" height="200"><defs><style type="text/css"></style></defs><path d="M512 981.333333a469.333333 469.333333 0 1 0 0-938.666666 469.333333 469.333333 0 0 0 0 938.666666z m0 42.666667A512 512 0 1 1 512 0a512 512 0 0 1 0 1024z m0-725.333333a42.666667 42.666667 0 1 1 0-85.333334 42.666667 42.666667 0 0 1 0 85.333334zM469.333333 426.666667a42.666667 42.666667 0 0 1 85.333334 0v341.333333a42.666667 42.666667 0 0 1-85.333334 0V426.666667z" fill="#EE2532" p-id="8283"></path></svg>