<?xml version="1.0" standalone="no"?><!DOCTYPE svg PUBLIC "-//W3C//DTD SVG 1.1//EN" "http://www.w3.org/Graphics/SVG/1.1/DTD/svg11.dtd"><svg t="1532354883164" class="icon" style="" viewBox="0 0 1024 1024" version="1.1" xmlns="http://www.w3.org/2000/svg" p-id="4707" xmlns:xlink="http://www.w3.org/1999/xlink" width="200" height="200"><defs><style type="text/css"></style></defs><path d="M742.793922 501.68098c-37.302581-7.258311-19.153222-27.39493-19.153222-27.39493s36.499285-60.337203-7.225565-104.204293c-54.219879-54.329373-185.940876 6.912433-185.940876 6.912433-50.319036 15.652492-36.95875-7.142677-29.847795-45.936215 0-45.705971-15.626909-123.060757-149.640112-77.370135C217.115388 299.625078 102.139773 460.573747 102.139773 460.573747 22.20114 567.524594 32.809755 650.183176 32.809755 650.183176 52.765249 832.662207 246.159888 882.754069 396.574642 894.610094c158.243047 12.447497 371.851053-54.689576 436.59359-192.612832C897.938398 563.844785 780.239765 509.168512 742.793922 501.68098zM408.302755 843.155189c-157.124574 7.358595-284.114826-71.620178-284.114826-176.73112 0-105.223506 126.990253-189.609429 284.114826-196.86774 157.182902-7.258311 284.428981 57.679677 284.428981 162.687266C692.731736 737.340211 565.484633 835.997162 408.302755 843.155189zM376.934327 538.863834c-157.983127 18.541285-139.747811 166.926824-139.747811 166.926824s-1.605567 46.986127 42.37818 70.918189c92.439342 50.205449 187.631378 19.805068 235.743142-42.459021C563.419602 671.956062 535.206026 520.451486 376.934327 538.863834zM337.080643 747.129158c-29.475312 3.464915-53.273321-13.582343-53.273321-38.33305 0-24.636097 21.131273-50.434669 50.635237-53.526077 33.889855-3.232624 55.968709 16.343223 55.968709 41.092907C390.411269 720.999035 366.49865 743.779877 337.080643 747.129158zM430.2363 667.574265c-10.005888 7.487531-22.278399 6.452969-27.554566-2.53166-5.504364-8.751315-3.440355-22.795169 6.652514-30.167067 11.697413-8.741082 23.882943-6.222725 29.15911 2.542916C443.798177 646.387733 440.013991 659.855466 430.2363 667.574265zM819.751664 437.432701c12.728906 0 23.566742-9.44307 25.3739-21.760606 0.230244-0.919952 0.344854-1.724271 0.344854-2.759857 19.296485-173.956937-142.187373-144.017044-142.187373-144.017044-14.335497 0-25.805736 11.627828-25.805736 26.130124 0 14.273075 11.470239 25.900903 25.805736 25.900903 116.009154-25.670659 90.406033 90.607624 90.406033 90.607624C793.688055 425.920506 805.356816 437.432701 819.751664 437.432701zM800.94125 133.803425c-55.855122-13.108552-113.255437-1.811252-129.340787 1.279133-1.233084 0.115634-2.409886 1.294482-3.555989 1.523703-0.545422 0.115634-0.889253 0.689708-0.889253 0.689708-15.885805 4.499477-27.469632 19.216667-27.469632 36.608779 0 20.726044 16.745383 37.772278 37.676088 37.772278 0 0 20.300348-2.730181 34.090423-8.135284 13.676487-5.519714 129.283482-4.110621 186.743148 92.590791 31.311123 70.571289 13.762445 117.800963 11.583826 125.389802 0 0-7.454786 18.340717-7.454786 36.391838 0 20.842701 16.744359 33.935903 37.502126 33.935903 17.375739 0 31.94148-2.373047 36.213783-31.807427l0.230244 0C1037.947152 253.990738 900.834354 157.172669 800.94125 133.803425z" p-id="4708" fill="#00d5f7"></path></svg>