<?xml version="1.0" standalone="no"?><!DOCTYPE svg PUBLIC "-//W3C//DTD SVG 1.1//EN" "http://www.w3.org/Graphics/SVG/1.1/DTD/svg11.dtd"><svg t="1533171061399" class="icon" style="" viewBox="0 0 1024 1024" version="1.1" xmlns="http://www.w3.org/2000/svg" p-id="2902" xmlns:xlink="http://www.w3.org/1999/xlink" width="200" height="200"><defs><style type="text/css"></style></defs><path d="M777.534144 905.780505 539.235806 905.780505l0-27.943422 238.298338 0c23.282263 0 41.904389-18.621103 41.904389-41.892109L819.438533 603.221608l27.927049 0 0 232.726435C847.365582 874.108155 815.707558 905.780505 777.534144 905.780505L777.534144 905.780505z" p-id="2903" fill="#ffffff"></path><path d="M178.042487 905.780505l-53.988612 0c-38.173414 0-69.819159-31.67235-69.819159-69.832462L54.234717 132.184555c0-38.160111 31.646767-69.805856 69.819159-69.805856l653.480268 0c38.175461 0 69.831438 31.646767 69.831438 69.805856l-27.927049 0c0-23.26896-18.622126-41.878806-41.904389-41.878806L124.053875 90.305749c-23.26896 0-41.892109 18.61087-41.892109 41.878806l0 703.763488c0 23.267936 18.62315 41.892109 41.892109 41.892109l53.988612 0L178.042487 905.780505 178.042487 905.780505z" p-id="2904" fill="#ffffff"></path><path d="M240.408907 961.621301l54.942333-202.00269 2.7793-2.792603 508.271072-508.270049c10.229992-10.244318 24.207331-14.903431 38.159088-14.903431 13.976316 0 27.927049 5.598508 37.245276 14.903431l72.610738 72.611761c20.464077 21.401426 20.464077 54.928007 0 75.404364L443.355085 907.633712 240.408907 961.621301 240.408907 961.621301zM319.546292 774.507716l-40.036855 148.016125 148.94324-39.099507 505.477446-506.403538c9.31618-9.317203 9.31618-26.061562 0-36.319184l-72.612785-72.598458c-9.29162-9.317203-26.061562-9.317203-36.293601 0L319.546292 774.507716 319.546292 774.507716z" p-id="2905" fill="#ffffff"></path><path d="M773.853311 310.49566l119.79334 119.80562-19.742646 19.74367L754.111688 330.251609 773.853311 310.49566 773.853311 310.49566z" p-id="2906" fill="#ffffff"></path><path d="M323.303872 757.853407l121.775484 121.79902-19.755949 19.730367L303.548946 777.60731 323.303872 757.853407 323.303872 757.853407z" p-id="2907" fill="#ffffff"></path><path d="M204.117352 239.247966 570.882574 239.247966l0 27.927049L204.117352 267.175015 204.117352 239.247966 204.117352 239.247966z" p-id="2908" fill="#ffffff"></path><path d="M204.117352 389.118322 483.379661 389.118322l0 27.927049L204.117352 417.045371 204.117352 389.118322 204.117352 389.118322z" p-id="2909" fill="#ffffff"></path><path d="M204.117352 539.001981l188.967816 0 0 27.912723L204.117352 566.914704 204.117352 539.001981 204.117352 539.001981z" p-id="2910" fill="#ffffff"></path></svg>