<?xml version="1.0" standalone="no"?><!DOCTYPE svg PUBLIC "-//W3C//DTD SVG 1.1//EN" "http://www.w3.org/Graphics/SVG/1.1/DTD/svg11.dtd"><svg t="1532315173383" class="icon" style="" viewBox="0 0 1024 1024" version="1.1" xmlns="http://www.w3.org/2000/svg" p-id="9386" xmlns:xlink="http://www.w3.org/1999/xlink" width="200" height="200"><defs><style type="text/css"></style></defs><path d="M86.016 256l84.010667 0 0 598.016 598.016 0 0 84.010667-598.016 0q-34.005333 0-59.008-25.002667t-25.002667-59.008l0-598.016zM470.016 512l-128 169.984 512 0-171.989333-212.010667-125.994667 157.994667zM937.984 681.984q0 34.005333-25.002667 59.989333t-59.008 25.984l-512 0q-34.005333 0-59.989333-25.984t-25.984-59.989333l0-512q0-34.005333 25.984-59.008t59.989333-25.002667l512 0q34.005333 0 59.008 25.002667t25.002667 59.008l0 512z" p-id="9387" data-spm-anchor-id="a313x.7781069.0.i43" class="selected" fill="#00d5f7"></path></svg>