<?xml version="1.0" standalone="no"?><!DOCTYPE svg PUBLIC "-//W3C//DTD SVG 1.1//EN" "http://www.w3.org/Graphics/SVG/1.1/DTD/svg11.dtd"><svg t="1532328333900" class="icon" style="" viewBox="0 0 1024 1024" version="1.1" xmlns="http://www.w3.org/2000/svg" p-id="3473" data-spm-anchor-id="a313x.7781069.0.i3" xmlns:xlink="http://www.w3.org/1999/xlink" width="200" height="200"><defs><style type="text/css"></style></defs><path d="M911.706366 592.526578V78.900989c0-35.956118-18.059513-63.347932-49.849842-74.309311a87.411768 87.411768 0 0 0-28.392534-4.351971C616.819649-0.062836 400.291671 0.006982 183.856783 0.006982c-3.397795 0-6.79559 0-10.123568 0.232725C135.845474 3.032416 106.010041 35.381286 106.010041 75.177378c-0.186181 290.604564-0.186181 581.185856 0 871.860238 0 26.204912 10.86829 46.777863 30.999061 61.509398 30.6267 22.364938 68.374807 18.292239 96.604432-10.682109 57.576335-59.182142 114.989761-118.59701 172.473006-177.942059 33.88486-34.908853 67.676629-69.864251 102.56221-105.890187 4.328698 4.282153 7.400677 7.214496 10.426111 10.309748 88.040127 90.856108 176.010436 181.805306 264.050563 272.591596 24.482742 25.274009 53.177819 32.674686 84.502697 18.874053 31.417968-13.800633 44.520424-40.889903 44.31097-77.19511-0.558542-115.43194-0.232726-230.747518-0.232725-346.086368z m-153.342955-227.256632l-130.791835 89.040847 50.385111 144.825195c0.767995 2.257439 1.233446 4.654514 1.233446 7.191223 0 12.637005-10.86829 22.876935-24.296562 22.876935a25.134374 25.134374 0 0 1-14.289357-4.35197l-131.722738-89.715752-131.722738 89.715752a25.297282 25.297282 0 0 1-14.266085 4.35197c-13.428272 0-24.319834-10.23993-24.319834-22.876935 0-2.466892 0.465451-4.933785 1.233446-7.214496l50.385111-144.801922-130.791836-89.040847a22.458029 22.458029 0 0 1-10.100294-18.524965c0-12.637005 10.86829-22.876935 24.366379-22.876935h161.837442l50.082568-144.103744c3.071979-9.355573 12.334461-16.197708 23.295841-16.197708 10.938107 0 20.223862 6.842135 23.295841 16.197708l50.082568 144.103744h161.837442c13.428272 0 24.296562 10.23993 24.296561 22.876935 0 7.633402-3.933064 14.382447-10.007204 18.524965z" p-id="3474" fill="#00d5f7" data-spm-anchor-id="a313x.7781069.0.i4" class="selected"></path></svg>