<?xml version="1.0" standalone="no"?><!DOCTYPE svg PUBLIC "-//W3C//DTD SVG 1.1//EN" "http://www.w3.org/Graphics/SVG/1.1/DTD/svg11.dtd"><svg t="1532252043998" class="icon" style="" viewBox="0 0 1024 1024" version="1.1" xmlns="http://www.w3.org/2000/svg" p-id="9210" xmlns:xlink="http://www.w3.org/1999/xlink" width="200" height="200"><defs><style type="text/css"></style></defs><path d="M320 960c-9.6 0-17.6-3.2-24-11.2-11.2-12.8-9.6-33.6 4.8-44.8l174.4-145.6c17.6-14.4 38.4-22.4 60.8-22.4H864c17.6 0 32-14.4 32-32V192c0-17.6-14.4-32-32-32H160c-17.6 0-32 14.4-32 32v512c0 17.6 14.4 32 32 32h128c17.6 0 32 14.4 32 32s-14.4 32-32 32h-128c-52.8 0-96-43.2-96-96V192c0-52.8 43.2-96 96-96h704c52.8 0 96 43.2 96 96v512c0 52.8-43.2 96-96 96H534.4c-8 0-14.4 3.2-20.8 8l-174.4 145.6c-4.8 3.2-11.2 6.4-19.2 6.4z" p-id="9211"></path><path d="M288 496c-17.6 0-32-14.4-32-32v-32c0-17.6 14.4-32 32-32s32 14.4 32 32v32c0 17.6-14.4 32-32 32zM512 496c-17.6 0-32-14.4-32-32v-32c0-17.6 14.4-32 32-32s32 14.4 32 32v32c0 17.6-14.4 32-32 32zM736 496c-17.6 0-32-14.4-32-32v-32c0-17.6 14.4-32 32-32s32 14.4 32 32v32c0 17.6-14.4 32-32 32z" p-id="9212"></path></svg>