<?xml version="1.0" standalone="no"?><!DOCTYPE svg PUBLIC "-//W3C//DTD SVG 1.1//EN" "http://www.w3.org/Graphics/SVG/1.1/DTD/svg11.dtd"><svg t="1532305240188" class="icon" style="" viewBox="0 0 1024 1024" version="1.1" xmlns="http://www.w3.org/2000/svg" p-id="1742" xmlns:xlink="http://www.w3.org/1999/xlink" width="200" height="200"><defs><style type="text/css"></style></defs><path d="M86.971733 317.277867A123.229867 123.229867 0 0 0 42.666667 411.776v488.96C42.666667 968.8576 98.0736 1024 166.2208 1024h682.922667c72.9344 0 132.189867-58.9824 132.189866-131.7376V411.776a123.221333 123.221333 0 0 0-44.288-94.481067L591.2576 28.731733a123.665067 123.665067 0 0 0-158.506667 0L86.971733 317.2864z m449.5872-223.044267L882.346667 382.7968A37.870933 37.870933 0 0 1 896 411.776v480.4864c0 25.540267-20.957867 46.404267-46.848 46.404267H166.212267c-21.102933 0-38.2208-17.032533-38.2208-37.922134v-488.96a37.888 37.888 0 0 1 13.661866-29.013333L487.424 94.2592a38.3488 38.3488 0 0 1 49.134933-0.017067zM307.2 1024h392.533333V631.441067C699.733333 593.749333 669.098667 563.2 631.466667 563.2H375.466667c-37.7088 0-68.266667 30.592-68.266667 68.241067V1024z m85.333333-93.866667V683.963733C392.533333 669.175467 405.111467 657.066667 420.744533 657.066667h165.444267C601.890133 657.066667 614.4 669.124267 614.4 683.963733V930.133333H392.533333z" fill="#4990EE" p-id="1743"></path></svg>